<?xml version="1.0" encoding="UTF-8" standalone="no"?>
<svg
   xmlns:dc="http://purl.org/dc/elements/1.1/"
   xmlns:cc="http://creativecommons.org/ns#"
   xmlns:rdf="http://www.w3.org/1999/02/22-rdf-syntax-ns#"
   xmlns:svg="http://www.w3.org/2000/svg"
   xmlns="http://www.w3.org/2000/svg"
   xmlns:sodipodi="http://sodipodi.sourceforge.net/DTD/sodipodi-0.dtd"
   xmlns:inkscape="http://www.inkscape.org/namespaces/inkscape"
   width="370.10318"
   contentScriptType="text/ecmascript"
   preserveAspectRatio="xMidYMid meet"
   font-size="12px"
   stroke-miterlimit="10"
   zoomAndPan="magnify"
   version="1.0"
   contentStyleType="text/css"
   font-style="normal"
   height="191.91382"
   font-weight="normal"
   id="svg163"
   sodipodi:docname="Fig04_cj34H100_b.svg"
   inkscape:version="0.92.5 (2060ec1f9f, 2020-04-08)"
   style="font-style:normal;font-weight:normal;font-size:12px;font-family:Dialog;color-interpolation:auto;fill:#000000;fill-opacity:1;stroke:#000000;stroke-width:1;stroke-linecap:square;stroke-linejoin:miter;stroke-miterlimit:10;stroke-dasharray:none;stroke-dashoffset:0;stroke-opacity:1;color-rendering:auto;image-rendering:auto;shape-rendering:auto;text-rendering:auto">
  <metadata
     id="metadata167">
    <rdf:RDF>
      <cc:Work
         rdf:about="">
        <dc:format>image/svg+xml</dc:format>
        <dc:type
           rdf:resource="http://purl.org/dc/dcmitype/StillImage" />
        <dc:title></dc:title>
      </cc:Work>
    </rdf:RDF>
  </metadata>
  <sodipodi:namedview
     pagecolor="#ffffff"
     bordercolor="#666666"
     borderopacity="1"
     objecttolerance="10"
     gridtolerance="10"
     guidetolerance="10"
     inkscape:pageopacity="0"
     inkscape:pageshadow="2"
     inkscape:window-width="1920"
     inkscape:window-height="1028"
     id="namedview165"
     showgrid="false"
     inkscape:zoom="2.0877514"
     inkscape:cx="233.23328"
     inkscape:cy="10.92374"
     inkscape:window-x="1920"
     inkscape:window-y="0"
     inkscape:window-maximized="1"
     inkscape:current-layer="svg163"
     fit-margin-top="2"
     fit-margin-left="2"
     fit-margin-right="2"
     fit-margin-bottom="2"
     showguides="true"
     inkscape:guide-bbox="true"
     inkscape:snap-global="false">
    <sodipodi:guide
       position="87.610373,-16.368599"
       orientation="0,1"
       id="guide911"
       inkscape:locked="false" />
  </sodipodi:namedview>
  <!--jun.util.prepareGraphics2D-->
  <defs
     id="genericDefs">
    <defs
       id="defs1">
      <clipPath
         id="clipPath1"
         clipPathUnits="userSpaceOnUse">
        <path
           id="path3"
           d="M 0,0 H 400 V 200 H 0 Z"
           inkscape:connector-curvature="0" />
      </clipPath>
      <clipPath
         id="clipPath3"
         clipPathUnits="userSpaceOnUse">
        <path
           id="path9"
           d="M 50,8 V 159 H 388 V 8 Z"
           inkscape:connector-curvature="0" />
      </clipPath>
    </defs>
  </defs>
  <text
     x="42.5"
     y="172.79883"
     clip-path="url(#clipPath1)"
     xml:space="preserve"
     id="text21"
     style="font-size:10px;font-family:sans-serif;fill:#000000;stroke:none;stroke-width:0.41322315;text-rendering:optimizeLegibility"
     transform="matrix(1.21,0,0,1.21,-15.193576,-40.775454)">0.0</text>
  <line
     clip-path="url(#clipPath1)"
     x1="50"
     x2="50"
     y1="161"
     y2="159"
     id="line23"
     style="font-size:10px;font-family:sans-serif;fill:none;stroke:#808080;stroke-width:0.5;text-rendering:optimizeLegibility"
     transform="translate(-4.6679416,-5.2577685)" />
  <text
     x="73.452377"
     y="172.79883"
     clip-path="url(#clipPath1)"
     xml:space="preserve"
     id="text25"
     style="font-size:10px;font-family:sans-serif;fill:#000000;stroke:none;stroke-width:0.41322315;text-rendering:optimizeLegibility"
     transform="matrix(1.21,0,0,1.21,-21.687935,-40.775454)">0.2</text>
  <line
     clip-path="url(#clipPath1)"
     x1="80.952377"
     x2="80.952377"
     y1="161"
     y2="159"
     id="line27"
     style="font-size:10px;font-family:sans-serif;fill:none;stroke:#808080;stroke-width:0.5;text-rendering:optimizeLegibility"
     transform="translate(-4.6679416,-5.2577685)" />
  <text
     x="104.40476"
     y="172.79883"
     clip-path="url(#clipPath1)"
     xml:space="preserve"
     id="text29"
     style="font-size:10px;font-family:sans-serif;fill:#000000;stroke:none;stroke-width:0.41322315;text-rendering:optimizeLegibility"
     transform="matrix(1.21,0,0,1.21,-28.213058,-40.775454)">0.4</text>
  <line
     clip-path="url(#clipPath1)"
     x1="111.90476"
     x2="111.90476"
     y1="161"
     y2="159"
     id="line31"
     style="font-size:10px;font-family:sans-serif;fill:none;stroke:#808080;stroke-width:0.5;text-rendering:optimizeLegibility"
     transform="translate(-4.6679416,-5.2577685)" />
  <text
     x="135.35715"
     y="172.79883"
     clip-path="url(#clipPath1)"
     xml:space="preserve"
     id="text33"
     style="font-size:10px;font-family:sans-serif;fill:#000000;stroke:none;stroke-width:0.41322315;text-rendering:optimizeLegibility"
     transform="matrix(1.21,0,0,1.21,-34.690501,-40.775454)">0.6</text>
  <line
     clip-path="url(#clipPath1)"
     x1="142.85715"
     x2="142.85715"
     y1="161"
     y2="159"
     id="line35"
     style="font-size:10px;font-family:sans-serif;fill:none;stroke:#808080;stroke-width:0.5;text-rendering:optimizeLegibility"
     transform="translate(-4.6679416,-5.2577685)" />
  <text
     x="166.30952"
     y="172.79883"
     clip-path="url(#clipPath1)"
     xml:space="preserve"
     id="text37"
     style="font-size:10px;font-family:sans-serif;fill:#000000;stroke:none;stroke-width:0.41322315;text-rendering:optimizeLegibility"
     transform="matrix(1.21,0,0,1.21,-41.194602,-40.774428)">0.8</text>
  <line
     clip-path="url(#clipPath1)"
     x1="173.80952"
     x2="173.80952"
     y1="161"
     y2="159"
     id="line39"
     style="font-size:10px;font-family:sans-serif;fill:none;stroke:#808080;stroke-width:0.5;text-rendering:optimizeLegibility"
     transform="translate(-4.6679416,-5.2577685)" />
  <text
     x="197.2619"
     y="172.79883"
     clip-path="url(#clipPath1)"
     xml:space="preserve"
     id="text41"
     style="font-size:10px;font-family:sans-serif;fill:#000000;stroke:none;stroke-width:0.41322315;text-rendering:optimizeLegibility"
     transform="matrix(1.21,0,0,1.21,-47.749972,-40.774941)">1.0</text>
  <line
     clip-path="url(#clipPath1)"
     x1="204.7619"
     x2="204.7619"
     y1="161"
     y2="159"
     id="line43"
     style="font-size:10px;font-family:sans-serif;fill:none;stroke:#808080;stroke-width:0.5;text-rendering:optimizeLegibility"
     transform="translate(-4.6679416,-5.2577685)" />
  <text
     x="228.21428"
     y="172.79883"
     clip-path="url(#clipPath1)"
     xml:space="preserve"
     id="text45"
     style="font-size:10px;font-family:sans-serif;fill:#000000;stroke:none;stroke-width:0.41322315;text-rendering:optimizeLegibility"
     transform="matrix(1.21,0,0,1.21,-54.244331,-40.75956)">1.2</text>
  <line
     clip-path="url(#clipPath1)"
     x1="235.71428"
     x2="235.71428"
     y1="161"
     y2="159"
     id="line47"
     style="font-size:10px;font-family:sans-serif;fill:none;stroke:#808080;stroke-width:0.5;text-rendering:optimizeLegibility"
     transform="translate(-4.6679416,-5.2577685)" />
  <text
     x="259.16666"
     y="172.79883"
     clip-path="url(#clipPath1)"
     xml:space="preserve"
     id="text49"
     style="font-size:10px;font-family:sans-serif;fill:#000000;stroke:none;stroke-width:0.41322315;text-rendering:optimizeLegibility"
     transform="matrix(1.21,0,0,1.21,-60.769453,-40.75956)">1.4</text>
  <line
     clip-path="url(#clipPath1)"
     x1="266.66666"
     x2="266.66666"
     y1="161"
     y2="159"
     id="line51"
     style="font-size:10px;font-family:sans-serif;fill:none;stroke:#808080;stroke-width:0.5;text-rendering:optimizeLegibility"
     transform="translate(-4.6679416,-5.2577685)" />
  <text
     x="290.11905"
     y="172.79883"
     clip-path="url(#clipPath1)"
     xml:space="preserve"
     id="text53"
     style="font-size:10px;font-family:sans-serif;fill:#000000;stroke:none;stroke-width:0.41322315;text-rendering:optimizeLegibility"
     transform="matrix(1.21,0,0,1.21,-67.246897,-40.774941)">1.6</text>
  <line
     clip-path="url(#clipPath1)"
     x1="297.61905"
     x2="297.61905"
     y1="161"
     y2="159"
     id="line55"
     style="font-size:10px;font-family:sans-serif;fill:none;stroke:#808080;stroke-width:0.5;text-rendering:optimizeLegibility"
     transform="translate(-4.6679416,-5.2577685)" />
  <text
     x="321.07144"
     y="172.79883"
     clip-path="url(#clipPath1)"
     xml:space="preserve"
     id="text57"
     style="font-size:10px;font-family:sans-serif;fill:#000000;stroke:none;stroke-width:0.41322315;text-rendering:optimizeLegibility"
     transform="matrix(1.21,0,0,1.21,-73.751,-40.774428)">1.8</text>
  <line
     clip-path="url(#clipPath1)"
     x1="328.57144"
     x2="328.57144"
     y1="161"
     y2="159"
     id="line59"
     style="font-size:10px;font-family:sans-serif;fill:none;stroke:#808080;stroke-width:0.5;text-rendering:optimizeLegibility"
     transform="translate(-4.6679416,-5.2577685)" />
  <text
     x="352.0238"
     y="172.79883"
     clip-path="url(#clipPath1)"
     xml:space="preserve"
     id="text61"
     style="font-size:10px;font-family:sans-serif;fill:#000000;stroke:none;stroke-width:0.41322315;text-rendering:optimizeLegibility"
     transform="matrix(1.21,0,0,1.21,-80.211006,-40.775454)">2.0</text>
  <line
     clip-path="url(#clipPath1)"
     x1="359.5238"
     x2="359.5238"
     y1="161"
     y2="159"
     id="line63"
     style="font-size:10px;font-family:sans-serif;fill:none;stroke:#808080;stroke-width:0.5;text-rendering:optimizeLegibility"
     transform="translate(-4.6679416,-5.2577685)" />
  <line
     clip-path="url(#clipPath1)"
     x1="50"
     x2="50"
     y1="8"
     y2="159"
     id="line67"
     style="font-size:10px;font-family:sans-serif;fill:none;stroke:#808080;stroke-width:0.5;text-rendering:optimizeLegibility"
     transform="translate(-4.6679416,-5.2577685)" />
  <text
     x="29"
     y="163.29883"
     clip-path="url(#clipPath1)"
     xml:space="preserve"
     id="text69"
     style="font-size:10px;font-family:sans-serif;fill:#000000;stroke:none;stroke-width:0.41322315;text-rendering:optimizeLegibility"
     transform="matrix(1.21,0,0,1.21,-12.358576,-38.780454)">0.0</text>
  <line
     clip-path="url(#clipPath1)"
     x1="48"
     x2="50"
     y1="159"
     y2="159"
     id="line71"
     style="font-size:10px;font-family:sans-serif;fill:none;stroke:#808080;stroke-width:0.5;text-rendering:optimizeLegibility"
     transform="translate(-4.6679416,-5.2577685)" />
  <text
     x="29"
     y="138.65251"
     clip-path="url(#clipPath1)"
     xml:space="preserve"
     id="text73"
     style="font-size:10px;font-family:sans-serif;fill:#000000;stroke:none;stroke-width:0.41322315;text-rendering:optimizeLegibility"
     transform="matrix(1.21,0,0,1.21,-12.349348,-33.604727)">0.5</text>
  <line
     clip-path="url(#clipPath1)"
     x1="48"
     x2="50"
     y1="134.35368"
     y2="134.35368"
     id="line75"
     style="font-size:10px;font-family:sans-serif;fill:none;stroke:#808080;stroke-width:0.5;text-rendering:optimizeLegibility"
     transform="translate(-4.6679416,-5.2577685)" />
  <text
     x="29"
     y="114.00619"
     clip-path="url(#clipPath1)"
     xml:space="preserve"
     id="text77"
     style="font-size:10px;font-family:sans-serif;fill:#000000;stroke:none;stroke-width:0.41322315;text-rendering:optimizeLegibility"
     transform="matrix(1.21,0,0,1.21,-12.414973,-28.428486)">1.0</text>
  <line
     clip-path="url(#clipPath1)"
     x1="48"
     x2="50"
     y1="109.70736"
     y2="109.70736"
     id="line79"
     style="font-size:10px;font-family:sans-serif;fill:none;stroke:#808080;stroke-width:0.5;text-rendering:optimizeLegibility"
     transform="translate(-4.6679416,-5.2577685)" />
  <text
     x="29"
     y="89.359863"
     clip-path="url(#clipPath1)"
     xml:space="preserve"
     id="text81"
     style="font-size:10px;font-family:sans-serif;fill:#000000;stroke:none;stroke-width:0.41322315;text-rendering:optimizeLegibility"
     transform="matrix(1.21,0,0,1.21,-12.405744,-23.252758)">1.5</text>
  <line
     clip-path="url(#clipPath1)"
     x1="48"
     x2="50"
     y1="85.061035"
     y2="85.061035"
     id="line83"
     style="font-size:10px;font-family:sans-serif;fill:none;stroke:#808080;stroke-width:0.5;text-rendering:optimizeLegibility"
     transform="translate(-4.6679416,-5.2577685)" />
  <text
     x="29"
     y="64.713547"
     clip-path="url(#clipPath1)"
     xml:space="preserve"
     id="text85"
     style="font-size:10px;font-family:sans-serif;fill:#000000;stroke:none;stroke-width:0.41322315;text-rendering:optimizeLegibility"
     transform="matrix(1.21,0,0,1.21,-12.376008,-18.077545)">2.0</text>
  <line
     clip-path="url(#clipPath1)"
     x1="48"
     x2="50"
     y1="60.414715"
     y2="60.414715"
     id="line87"
     style="font-size:10px;font-family:sans-serif;fill:none;stroke:#808080;stroke-width:0.5;text-rendering:optimizeLegibility"
     transform="translate(-4.6679416,-5.2577685)" />
  <text
     x="29"
     y="40.067223"
     clip-path="url(#clipPath1)"
     xml:space="preserve"
     id="text89"
     style="font-size:10px;font-family:sans-serif;fill:#000000;stroke:none;stroke-width:0.41322315;text-rendering:optimizeLegibility"
     transform="matrix(1.21,0,0,1.21,-12.366779,-12.901816)">2.5</text>
  <line
     clip-path="url(#clipPath1)"
     x1="48"
     x2="50"
     y1="35.768394"
     y2="35.768394"
     id="line91"
     style="font-size:10px;font-family:sans-serif;fill:none;stroke:#808080;stroke-width:0.5;text-rendering:optimizeLegibility"
     transform="translate(-4.6679416,-5.2577685)" />
  <text
     x="29"
     y="15.420903"
     clip-path="url(#clipPath1)"
     xml:space="preserve"
     id="text93"
     style="font-size:10px;font-family:sans-serif;fill:#000000;stroke:none;stroke-width:0.41322315;text-rendering:optimizeLegibility"
     transform="matrix(1.21,0,0,1.21,-12.34986,-7.7260898)">3.0</text>
  <line
     clip-path="url(#clipPath1)"
     x1="48"
     x2="50"
     y1="11.122075"
     y2="11.122075"
     id="line95"
     style="font-size:10px;font-family:sans-serif;fill:none;stroke:#808080;stroke-width:0.5;text-rendering:optimizeLegibility"
     transform="translate(-4.6679416,-5.2577685)" />
  <g
     style="font-family:sans-serif;fill:#c0c0c0;stroke:#c0c0c0;stroke-width:0.5;stroke-linecap:butt;stroke-linejoin:bevel;stroke-miterlimit:0;stroke-dasharray:2, 2;text-rendering:optimizeLegibility"
     id="g137"
     stroke-miterlimit="0"
     transform="translate(-4.6679416,-5.2577685)">
    <line
       style="fill:none"
       id="line101"
       y2="159"
       y1="8"
       x2="50"
       x1="50"
       clip-path="url(#clipPath3)" />
    <line
       style="fill:none"
       id="line103"
       y2="159"
       y1="8"
       x2="80.952377"
       x1="80.952377"
       clip-path="url(#clipPath3)" />
    <line
       style="fill:none"
       id="line105"
       y2="159"
       y1="8"
       x2="111.90476"
       x1="111.90476"
       clip-path="url(#clipPath3)" />
    <line
       style="fill:none"
       id="line107"
       y2="159"
       y1="8"
       x2="142.85715"
       x1="142.85715"
       clip-path="url(#clipPath3)" />
    <line
       style="fill:none"
       id="line109"
       y2="159"
       y1="8"
       x2="173.80952"
       x1="173.80952"
       clip-path="url(#clipPath3)" />
    <line
       style="fill:none"
       id="line111"
       y2="159"
       y1="8"
       x2="204.7619"
       x1="204.7619"
       clip-path="url(#clipPath3)" />
    <line
       style="fill:none"
       id="line113"
       y2="159"
       y1="8"
       x2="235.71428"
       x1="235.71428"
       clip-path="url(#clipPath3)" />
    <line
       style="fill:none"
       id="line115"
       y2="159"
       y1="8"
       x2="266.66666"
       x1="266.66666"
       clip-path="url(#clipPath3)" />
    <line
       style="fill:none"
       id="line117"
       y2="159"
       y1="8"
       x2="297.61905"
       x1="297.61905"
       clip-path="url(#clipPath3)" />
    <line
       style="fill:none"
       id="line119"
       y2="159"
       y1="8"
       x2="328.57144"
       x1="328.57144"
       clip-path="url(#clipPath3)" />
    <line
       style="fill:none"
       id="line121"
       y2="159"
       y1="8"
       x2="359.5238"
       x1="359.5238"
       clip-path="url(#clipPath3)" />
    <line
       style="fill:none;stroke-width:0.51204687"
       id="line123"
       y2="159"
       y1="159"
       x2="388"
       x1="50"
       clip-path="url(#clipPath3)"
       transform="matrix(0.95349964,0,0,1,2.325018,0)" />
    <line
       style="fill:none;stroke-width:0.51204687"
       id="line125"
       y2="134.35368"
       y1="134.35368"
       x2="388"
       x1="50"
       clip-path="url(#clipPath3)"
       transform="matrix(0.95349964,0,0,1,2.325018,0)" />
    <line
       style="fill:none;stroke-width:0.51204687"
       id="line127"
       y2="109.70736"
       y1="109.70736"
       x2="388"
       x1="50"
       clip-path="url(#clipPath3)"
       transform="matrix(0.95349964,0,0,1,2.325018,0)" />
    <line
       style="fill:none;stroke-width:0.51204687"
       id="line129"
       y2="85.061035"
       y1="85.061035"
       x2="388"
       x1="50"
       clip-path="url(#clipPath3)"
       transform="matrix(0.95349964,0,0,1,2.325018,0)" />
    <line
       style="fill:none;stroke-width:0.51204687"
       id="line131"
       y2="60.414719"
       y1="60.414719"
       x2="388"
       x1="50"
       clip-path="url(#clipPath3)"
       transform="matrix(0.95349964,0,0,1,2.325018,0)" />
    <line
       style="fill:none;stroke-width:0.51204687"
       id="line133"
       y2="35.768394"
       y1="35.768394"
       x2="388"
       x1="50"
       clip-path="url(#clipPath3)"
       transform="matrix(0.95349964,0,0,1,2.325018,0)" />
    <line
       style="fill:none;stroke-width:0.51204687"
       id="line135"
       y2="11.122075"
       y1="11.122075"
       x2="388"
       x1="50"
       clip-path="url(#clipPath3)"
       transform="matrix(0.95349964,0,0,1,2.325018,0)" />
  </g>
  <g
     style="font-family:sans-serif;fill:#ff0000;stroke:#ff0000;stroke-width:1.5;stroke-linecap:round;stroke-linejoin:round;stroke-miterlimit:0;text-rendering:optimizeLegibility"
     id="g159"
     stroke-miterlimit="0"
     transform="translate(-4.6679416,-5.2577685)">
    <path
       style="fill:none"
       inkscape:connector-curvature="0"
       id="path139"
       clip-path="url(#clipPath3)"
       d="m 65.476189,142.41362 3.095237,-0.75429 3.095238,1.54981 3.095238,4.07196 3.095238,1.73068 3.095237,1.57431 3.095246,0.54774 3.095237,1.48172 3.095238,0.8805 3.095238,0.39276 3.095238,0.25925 3.095237,0.95486 3.095239,0.7081 3.09524,-0.0505 3.09523,-0.95084 3.09524,0.0294 3.09524,1.01289 3.09524,0.44495 3.09524,0.16116 3.09523,0.32064 3.09524,-0.0149 3.09525,6.1e-4 3.09523,0.30924 3.09524,0.20206 3.09523,0.18498 3.09525,0.12535 3.09523,0.2312 3.09524,0.0676 3.09523,-0.0646 3.09525,0.0948 3.09523,0.17532 3.09524,0.089 3.09523,0.13016 3.09525,0.12735 3.09523,0.0395 3.09524,0.0291 3.09523,-0.0246 3.09525,-0.0281 3.09524,0.0183 3.09523,0.007 3.09525,0.0435 3.09523,0.0537 3.09525,0.005 3.09523,-0.01 3.09524,-0.0197 3.09523,-0.03 3.09525,-0.0335 3.09523,-0.0273 3.09524,-0.0154 3.09523,-0.009 3.09525,0.007 3.09523,0.0241 3.09524,0.004 3.09523,0.0341 3.09525,0.0352 3.09523,0.0179 3.09524,0.0265 3.09523,0.0322 3.09525,0.0365 3.09524,0.0376 3.09523,0.0362 3.09525,0.0284 3.09523,0.0156 3.09525,0.001 3.09524,0.003 3.09522,0.005 3.09524,0.005 3.09525,0.006 3.09524,0.007 3.09522,0.008 3.09524,0.009 3.09525,0.009 3.09524,0.009 3.09522,10e-4 3.09524,0.001 3.09525,0.005 3.09524,1e-5 3.09522,0.001 3.09525,0.004 3.09524,0.006 3.09524,0.008 3.09525,0.009 3.09522,0.01 3.09524,0.01 3.09525,0.006 3.09524,0.002 3.09522,0.002 3.09524,0.002 3.09525,0.002 3.09524,0.002 3.09522,0.002 3.09524,0.002 3.09525,0.001 3.09524,10e-4 3.09522,0.001 3.09524,0.001 3.09525,0.001 3.09524,0.001 3.09522,0.001 3.09525,10e-4" />
    <path
       style="fill:none;stroke:#0000ff"
       inkscape:connector-curvature="0"
       id="path141"
       clip-path="url(#clipPath3)"
       d="m 65.476189,98.491119 3.095237,3.924621 3.095238,-11.623244 3.095238,4.529854 3.095238,7.01958 3.095237,11.97673 3.095246,0.83841 3.095237,0.42997 3.095238,-12.91855 3.095238,-7.60277 3.095238,-1.436875 3.095237,12.801915 3.095239,5.42543 3.09524,-1.83475 3.09523,-5.29698 3.09524,5.08426 3.09524,9.57519 3.09524,1.85217 3.09524,3.28416 3.09523,2.7351 3.09524,2.2121 3.09525,2.48123 3.09523,0.65968 3.09524,3.29222 3.09523,2.19748 3.09525,0.99738 3.09523,1.86667 3.09524,1.88421 3.09523,1.55933 3.09525,0.72406 3.09523,0.64381 3.09524,0.64046 3.09523,0.24068 3.09525,-0.15958 3.09523,0.32169 3.09524,0.73555 3.09523,1.1326 3.09525,1.19892 3.09524,0.60637 3.09523,0.46855 3.09525,0.3191 3.09523,0.26303 3.09525,0.30729 3.09523,0.37298 3.09524,0.41925 3.09523,0.41119 3.09525,0.37567 3.09523,0.34279 3.09524,-0.1566 3.09523,-0.37392 3.09525,-0.1803 3.09523,0.008 3.09524,0.18031 3.09523,0.12546 3.09525,0.10049 3.09523,-0.0964 3.09524,0.056 3.09523,0.22261 3.09525,0.37363 3.09524,0.48263 3.09523,0.4772 3.09525,0.15632 3.09523,0.19332 3.09525,0.21274 3.09524,0.21672 3.09522,0.21085 3.09524,0.20596 3.09525,0.20986 3.09524,0.16279 3.09522,0.0433 3.09524,0.0627 3.09525,0.0777 3.09524,0.0678 3.09522,0.0315 3.09524,0.0359 3.09525,0.0406 3.09524,0.0444 3.09522,0.0467 3.09525,0.0472 3.09524,0.0459 3.09524,0.0429 3.09525,0.0387 3.09522,0.0337 3.09524,0.0285 3.09525,0.0234 3.09524,0.0192 3.09522,0.016 3.09524,0.0139 3.09525,0.0131 3.09524,0.0134 3.09522,0.0146 3.09524,0.0165 3.09525,0.019 3.09524,0.0217 3.09522,0.0246 3.09524,0.0273 3.09525,0.0299 3.09524,0.0321 3.09522,0.0339 3.09525,0.0352" />
    <path
       style="fill:none;stroke:#00cc00"
       inkscape:connector-curvature="0"
       id="path143"
       clip-path="url(#clipPath3)"
       d="m 65.476189,126.77772 3.095237,15.02825 3.095238,2.31737 3.095238,-0.43251 3.095238,0.041 3.095237,-2.20042 3.095246,-5.59095 3.095237,0.85273 3.095238,-5.28914 3.095238,-1.95365 3.095238,0.65221 3.095237,0.49162 3.095239,2.15259 3.09524,3.50752 3.09523,5.08889 3.09524,2.20277 3.09524,1.99817 3.09524,0.31296 3.09524,0.87431 3.09523,1.44507 3.09524,0.25253 3.09525,-0.33375 3.09523,0.38231 3.09524,1.04386 3.09523,1.1493 3.09525,0.36796 3.09523,0.16069 3.09524,0.33942 3.09523,0.54001 3.09525,0.54362 3.09523,0.43794 3.09524,0.35575 3.09523,0.33548 3.09525,0.0683 3.09523,0.0943 3.09524,0.12259 3.09523,-0.13973 3.09525,0.0211 3.09524,0.49197 3.09523,0.32765 3.09525,0.0236 3.09523,0.032 3.09525,0.0827 3.09523,0.15365 3.09524,0.20455 3.09523,0.23832 3.09525,0.0264 3.09523,0.0554 3.09524,-0.1206 3.09523,-0.14307 3.09525,-0.0111 3.09523,0.0939 3.09524,0.0972 3.09523,-0.001 3.09525,0.0811 3.09523,0.17606 3.09524,0.24815 3.09523,0.29696 3.09525,0.32215 3.09524,0.0742 3.09523,0.049 3.09525,0.0669 3.09523,0.0754 3.09525,0.0768 3.09524,0.0735 3.09522,0.0663 3.09524,0.0678 3.09525,0.0663 3.09524,0.0689 3.09522,0.0711 3.09524,0.0725 3.09525,0.0726 3.09524,0.0713 3.09522,0.0676 3.09524,0.0634 3.09525,0.059 3.09524,0.0543 3.09522,0.05 3.09525,0.0461 3.09524,0.0427 3.09524,0.0397 3.09525,0.0373 3.09522,0.0353 3.09524,0.0339 3.09525,0.0283 3.09524,0.0164 3.09522,-0.005 3.09524,-0.002 3.09525,0.002 3.09524,0.006 3.09522,0.01 3.09524,0.0126 3.09525,0.0161 3.09524,0.0192 3.09522,0.022 3.09524,0.0239 3.09525,0.0258 3.09524,0.0277 3.09522,0.0187 3.09525,0.0107" />
    <path
       style="fill:none;stroke:#cc00ff"
       inkscape:connector-curvature="0"
       id="path145"
       clip-path="url(#clipPath3)"
       d="m 65.476189,149.13026 3.095237,-4.21106 3.095238,1.72164 3.095238,1.52714 3.095238,1.02814 3.095237,-1.14157 3.095246,-1.62441 3.095237,-0.79666 3.095238,-4.70379 3.095238,2.94891 3.095238,-3.64526 3.095237,2.79803 3.095239,4.76918 3.09524,-0.0856 3.09523,-3.3634 3.09524,-0.82402 3.09524,2.4024 3.09524,2.52553 3.09524,1.39715 3.09523,0.88552 3.09524,0.10641 3.09525,1.13022 3.09523,0.22374 3.09524,0.19309 3.09523,1.12387 3.09525,-0.21622 3.09523,0.4084 3.09524,0.54053 3.09523,0.31218 3.09525,0.37623 3.09523,0.3483 3.09524,0.15486 3.09523,-0.66345 3.09525,-0.45692 3.09523,0.044 3.09524,-0.22978 3.09523,-0.19504 3.09525,0.227 3.09524,0.44168 3.09523,-0.0264 3.09525,-0.18123 3.09523,-0.1962 3.09525,-0.0929 3.09523,0.23581 3.09524,0.53612 3.09523,0.52834 3.09525,0.21061 3.09523,-0.0974 3.09524,-0.0717 3.09523,-0.0116 3.09525,0.0326 3.09523,0.20787 3.09524,-0.009 3.09523,0.0538 3.09525,0.15046 3.09523,0.22519 3.09524,0.22515 3.09523,0.054 3.09525,0.001 3.09524,0.0173 3.09523,0.0611 3.09525,0.0213 3.09523,-0.0525 3.09525,-0.0703 3.09524,-3.5e-4 3.09522,0.0755 3.09524,0.0274 3.09525,0.13644 3.09524,0.11881 3.09522,0.0537 3.09524,0.0351 3.09525,0.0356 3.09524,-0.0351 3.09522,-0.0128 3.09524,0.0114 3.09525,0.0232 3.09524,0.0254 3.09522,0.0338 3.09525,0.057 3.09524,0.09 3.09524,0.10934 3.09525,0.0603 3.09522,0.0628 3.09524,0.0763 3.09525,0.0839 3.09524,0.0829 3.09522,0.0414 3.09524,0.0618 3.09525,0.06 3.09524,-0.006 3.09522,0.005 3.09524,0.0155 3.09525,0.01 3.09524,0.002 3.09522,0.009 3.09524,0.0124 3.09525,0.0163 3.09524,0.0221 3.09522,0.0304 3.09525,0.0401" />
    <path
       style="fill:none;stroke:#00cccc"
       inkscape:connector-curvature="0"
       id="path147"
       clip-path="url(#clipPath3)"
       d="m 65.476189,74.54734 3.095237,21.918923 3.095238,-22.720787 3.095238,-14.045391 3.095238,-29.305619 3.095237,54.385518 3.095246,24.272326 3.095237,-2.20528 3.095238,-2.02732 3.095238,-1.79666 3.095238,5.40661 3.095237,13.66212 3.095239,-9.61465 3.09524,-5.39357 3.09523,-1.96868 3.09524,1.46243 3.09524,0.2728 3.09524,9.42275 3.09524,0.68014 3.09523,2.06673 3.09524,4.56421 3.09525,4.60167 3.09523,5.26776 3.09524,1.37904 3.09523,0.38791 3.09525,1.8886 3.09523,2.2966 3.09524,2.40754 3.09523,2.04587 3.09525,1.73779 3.09523,1.33541 3.09524,0.51334 3.09523,0.53469 3.09525,0.9047 3.09523,0.0673 3.09524,0.24806 3.09523,0.58381 3.09525,0.39875 3.09524,0.1982 3.09523,0.31809 3.09525,0.40219 3.09523,0.48893 3.09525,-0.13568 3.09523,-0.0906 3.09524,-0.0348 3.09523,0.0482 3.09525,-0.15911 3.09523,0.24297 3.09524,0.37517 3.09523,0.21766 3.09525,0.21872 3.09523,0.22672 3.09524,0.24011 3.09523,-0.0167 3.09525,-0.23838 3.09523,-0.11988 3.09524,0.005 3.09523,0.29075 3.09525,0.35506 3.09524,0.56459 3.09523,0.65161 3.09525,0.63179 3.09523,0.44724 3.09525,0.0431 3.09524,0.0514 3.09522,0.0502 3.09524,0.044 3.09525,0.0391 3.09524,0.0392 3.09522,0.0449 3.09524,0.0542 3.09525,0.0637 3.09524,0.0705 3.09522,0.0729 3.09524,0.0711 3.09525,0.0662 3.09524,0.0599 3.09522,0.0536 3.09525,0.0485 3.09524,0.0443 3.09524,0.0427 3.09525,0.043 3.09522,0.0445 3.09524,0.0462 3.09525,0.0477 3.09524,0.0486 3.09522,0.0487 3.09524,0.0482 3.09525,0.0476 3.09524,0.047 3.09522,0.0466 3.09524,0.0465 3.09525,0.0468 3.09524,0.0472 3.09522,0.0477 3.09524,0.0482 3.09525,0.0485 3.09524,0.0487 3.09522,0.0485 3.09525,0.0478" />
    <path
       style="fill:none;stroke:#cccc00"
       inkscape:connector-curvature="0"
       id="path149"
       clip-path="url(#clipPath3)"
       d="m 65.476189,134.12723 3.095237,-8.52984 3.095238,8.64879 3.095238,10.24732 3.095238,4.48212 3.095237,3.1255 3.095246,1.68143 3.095237,-0.0531 3.095238,0.10455 3.095238,-0.98286 3.095238,2.06345 3.095237,0.46476 3.095239,0.39724 3.09524,0.45549 3.09523,0.0314 3.09524,0.1396 3.09524,0.1537 3.09524,0.198 3.09524,-0.0408 3.09523,-0.19261 3.09524,0.0852 3.09525,0.13754 3.09523,0.1942 3.09524,0.27676 3.09523,0.27362 3.09525,0.24591 3.09523,0.10936 3.09524,0.10923 3.09523,0.0954 3.09525,0.0483 3.09523,0.0408 3.09524,0.0354 3.09523,0.0422 3.09525,0.0495 3.09523,0.048 3.09524,0.0393 3.09523,0.0299 3.09525,0.0287 3.09524,0.0299 3.09523,0.0253 3.09525,0.0193 3.09523,-0.0311 3.09525,-0.006 3.09523,-0.002 3.09524,0.001 3.09523,0.0253 3.09525,0.0301 3.09523,0.0519 3.09524,0.048 3.09523,0.0224 3.09525,-0.005 3.09523,-0.0149 3.09524,-0.009 3.09523,0.004 3.09525,0.0195 3.09523,0.0339 3.09524,0.03 3.09523,0.0183 3.09525,0.0202 3.09524,0.0209 3.09523,0.0167 3.09525,0.0112 3.09523,0.0113 3.09525,0.009 3.09524,0.004 3.09522,0.004 3.09524,0.006 3.09525,0.009 3.09524,0.011 3.09522,0.0113 3.09524,0.0104 3.09525,0.006 3.09524,0.006 3.09522,0.006 3.09524,0.005 3.09525,0.005 3.09524,0.004 3.09522,0.003 3.09525,0.002 3.09524,2.9e-4 3.09524,3.6e-4 3.09525,7.3e-4 3.09522,10e-4 3.09524,0.002 3.09525,0.002 3.09524,0.002 3.09522,0.003 3.09524,0.002 3.09525,0.002 3.09524,0.002 3.09522,0.002 3.09524,0.002 3.09525,0.002 3.09524,0.002 3.09522,0.002 3.09524,0.001 3.09525,0.001 3.09524,0.001 3.09522,0.001 3.09525,0.002" />
    <path
       style="fill:none;stroke:#333333"
       inkscape:connector-curvature="0"
       id="path151"
       clip-path="url(#clipPath3)"
       d="m 65.476189,145.46606 3.095237,-6.51922 3.095238,6.98947 3.095238,-5.23665 3.095238,8.7775 3.095237,2.23916 3.095246,0.60807 3.095237,0.24305 3.095238,0.67952 3.095238,-2.41621 3.095238,0.21008 3.095237,0.63065 3.095239,0.72973 3.09524,-0.70404 3.09523,-0.11097 3.09524,1.3051 3.09524,1.34236 3.09524,0.40936 3.09524,0.3019 3.09523,0.27229 3.09524,-0.0797 3.09525,0.29776 3.09523,0.0948 3.09524,0.27945 3.09523,0.30345 3.09525,0.43439 3.09523,0.3961 3.09524,0.23656 3.09523,0.20588 3.09525,0.17173 3.09523,0.12121 3.09524,0.0984 3.09523,0.0962 3.09525,0.0962 3.09523,0.0813 3.09524,0.0568 3.09523,0.0309 3.09525,0.028 3.09524,0.0406 3.09523,0.0393 3.09525,0.0281 3.09523,0.0256 3.09525,0.0261 3.09523,0.0375 3.09524,0.0144 3.09523,0.03 3.09525,0.0398 3.09523,0.009 3.09524,0.022 3.09523,0.0109 3.09525,-0.0135 3.09523,-0.0239 3.09524,-0.0116 3.09523,0.0129 3.09525,0.0318 3.09523,0.0424 3.09524,0.0526 3.09523,0.0578 3.09525,0.0446 3.09524,0.005 3.09523,0.0128 3.09525,0.007 3.09523,0.006 3.09525,0.006 3.09524,0.006 3.09522,0.007 3.09524,0.008 3.09525,0.009 3.09524,0.011 3.09522,0.009 3.09524,0.006 3.09525,0.007 3.09524,0.007 3.09522,0.007 3.09524,0.005 3.09525,0.005 3.09524,0.004 3.09522,0.004 3.09525,0.004 3.09524,0.005 3.09524,0.006 3.09525,0.006 3.09522,0.004 3.09524,0.006 3.09525,0.007 3.09524,0.008 3.09522,0.007 3.09524,0.001 3.09525,0.001 3.09524,0.003 3.09522,0.004 3.09524,0.002 3.09525,-0.001 3.09524,8e-5 3.09522,0.001 3.09524,0.003 3.09525,0.003 3.09524,0.004 3.09522,0.004 3.09525,0.005" />
    <path
       style="fill:none;stroke:#880000"
       inkscape:connector-curvature="0"
       id="path153"
       clip-path="url(#clipPath3)"
       d="m 65.476189,31.202658 3.095237,15.015878 3.095238,10.112465 3.095238,0.01655 3.095238,30.412594 3.095237,12.219551 3.095246,-8.321037 3.095237,-11.124771 3.095238,-14.068756 3.095238,-4.669773 3.095238,-11.894646 3.095237,-1.696797 3.095239,15.307663 3.09524,-7.794147 3.09523,-25.986563 3.09524,-13.540395 3.09524,36.471527 3.09524,0.868602 3.09524,3.031613 3.09523,1.103477 3.09524,2.508835 3.09525,2.956673 3.09523,1.748432 3.09524,0.950962 3.09523,5.300339 3.09525,9.157089 3.09523,6.61351 3.09524,4.640648 3.09523,5.822212 3.09525,6.048447 3.09523,4.18141 3.09524,3.35718 3.09523,2.9614 3.09525,2.40907 3.09523,1.97255 3.09524,1.71268 3.09523,1.41784 3.09525,1.43689 3.09524,1.7843 3.09523,2.36045 3.09525,2.63409 3.09523,2.45453 3.09525,2.05194 3.09523,1.26094 3.09524,0.60033 3.09523,0.0193 3.09525,-1.14729 3.09523,-2.15882 3.09524,-2.40251 3.09523,-1.56618 3.09525,0.14367 3.09523,2.11715 3.09524,1.51143 3.09523,2.28095 3.09525,1.77705 3.09523,0.3927 3.09524,0.4763 3.09523,0.78203 3.09525,1.2202 3.09524,1.65659 3.09523,1.97574 3.09525,2.11177 3.09523,1.36641 3.09525,1.22991 3.09524,1.22098 3.09522,0.6258 3.09524,0.37921 3.09525,0.5325 3.09524,0.61169 3.09522,0.63137 3.09524,0.62016 3.09525,0.56677 3.09524,0.27268 3.09522,0.0145 3.09524,0.10314 3.09525,0.18991 3.09524,0.2462 3.09522,0.20373 3.09525,0.22095 3.09524,0.0396 3.09524,0.0168 3.09525,0.003 3.09522,-0.001 3.09524,0.005 3.09525,0.0197 3.09524,0.0425 3.09522,-0.14802 3.09524,-0.24968 3.09525,-0.24909 3.09524,-0.29856 3.09522,-0.27942 3.09524,-0.20531 3.09525,-0.12209 3.09524,-0.11016 3.09522,-0.0198 3.09524,0.0741 3.09525,0.16124 3.09524,0.17041 3.09522,0.24755 3.09525,0.20681" />
    <path
       style="fill:none;stroke:#000088"
       inkscape:connector-curvature="0"
       id="path155"
       clip-path="url(#clipPath3)"
       d="m 65.476189,146.31587 3.095237,-5.67033 3.095238,5.74742 3.095238,-4.30374 3.095238,-1.55533 3.095237,2.5849 3.095246,-1.26346 3.095237,-4.41591 3.095238,2.78433 3.095238,-3.4201 3.095238,-1.22691 3.095237,4.35896 3.095239,-0.21845 3.09524,-3.32148 3.09523,-4.37542 3.09524,-0.23326 3.09524,-0.6432 3.09524,-5.14939 3.09524,0.32221 3.09523,3.42668 3.09524,6.00131 3.09525,2.84543 3.09523,-3.03882 3.09524,1.48876 3.09523,6.3165 3.09525,1.10338 3.09523,-0.51534 3.09524,0.43503 3.09523,1.93818 3.09525,1.89545 3.09523,-0.34936 3.09524,-2.05069 3.09523,-1.36138 3.09525,0.23761 3.09523,0.80127 3.09524,-0.0199 3.09523,0.37167 3.09525,0.54272 3.09524,0.53795 3.09523,0.24057 3.09525,-0.15851 3.09523,-0.0894 3.09525,-0.14646 3.09523,-0.37658 3.09524,-0.90523 3.09523,-1.33447 3.09525,-1.09928 3.09523,-0.41168 3.09524,0.18611 3.09523,0.31925 3.09525,0.22403 3.09523,0.22424 3.09524,0.11732 3.09523,-0.22808 3.09525,-0.75666 3.09523,-1.0939 3.09524,-0.90578 3.09523,-0.35727 3.09525,0.0869 3.09524,0.33909 3.09523,0.47409 3.09525,0.32238 3.09523,-0.4077 3.09525,0.0163 3.09524,0.39496 3.09522,0.88247 3.09524,1.16495 3.09525,1.29445 3.09524,1.36545 3.09522,0.61528 3.09524,0.41331 3.09525,0.43201 3.09524,0.58713 3.09522,0.81573 3.09524,0.7236 3.09525,0.83187 3.09524,0.92282 3.09522,0.95068 3.09525,0.73328 3.09524,0.0385 3.09524,-0.091 3.09525,-0.0311 3.09522,0.0271 3.09524,0.0749 3.09525,0.10832 3.09524,0.13669 3.09522,0.15504 3.09524,0.1574 3.09525,0.14822 3.09524,0.12726 3.09522,0.0987 3.09524,0.0746 3.09525,-0.0193 3.09524,-0.0639 3.09522,-0.0908 3.09524,-0.0875 3.09525,-0.0474 3.09524,0.0266 3.09522,0.11983 3.09525,0.21736" />
    <rect
       style="fill:none;stroke:#000000;stroke-width:1.02409375"
       id="rect157"
       height="151"
       width="338"
       clip-path="url(#clipPath1)"
       y="8"
       x="50"
       transform="matrix(0.95349964,0,0,1,2.3250181,0)" />
  </g>
  <text
     xml:space="preserve"
     style="font-style:normal;font-weight:normal;font-size:14.27755547px;line-height:1.25;font-family:sans-serif;letter-spacing:0px;word-spacing:0px;fill:#000000;fill-opacity:1;stroke:none;stroke-width:0.99999994"
     x="-173.43073"
     y="13.848316"
     id="text1142"
     transform="matrix(0,-0.97052883,1.0303661,0,0,0)"><tspan
       sodipodi:role="line"
       id="tspan1140"
       x="-173.43073"
       y="13.848316"
       style="font-style:normal;font-variant:normal;font-weight:normal;font-stretch:normal;font-family:FreeSans;-inkscape-font-specification:FreeSans;stroke-width:2.71370888">絶対応答加速度</tspan></text>
  <g
     id="g920"
     transform="matrix(0,-1.7263218,1.7297402,0,-345.931,215.56247)"
     style="stroke-width:0.57869357">
    <text
       id="text899"
       y="207.93065"
       x="90.240921"
       style="font-style:normal;font-variant:normal;font-weight:normal;font-stretch:normal;font-size:11.03061104px;line-height:0em;font-family:FreeSerif;-inkscape-font-specification:FreeSerif;font-variant-ligatures:normal;font-variant-position:normal;font-variant-caps:normal;font-variant-numeric:normal;font-variant-alternates:normal;font-feature-settings:normal;text-indent:0;text-align:start;text-decoration:none;text-decoration-line:none;text-decoration-style:solid;text-decoration-color:#000000;letter-spacing:0px;word-spacing:0px;text-transform:none;writing-mode:lr-tb;direction:ltr;text-orientation:mixed;dominant-baseline:auto;baseline-shift:baseline;text-anchor:start;white-space:normal;shape-padding:0;opacity:1;vector-effect:none;fill:#000000;fill-opacity:1;stroke:none;stroke-width:0.57869357;stroke-linecap:butt;stroke-linejoin:round;stroke-miterlimit:10;stroke-dasharray:none;stroke-dashoffset:0;stroke-opacity:1;marker:none"
       xml:space="preserve"><tspan
         style="font-style:italic;fill:#000000;fill-opacity:1;stroke:none;stroke-width:0.57869357"
         y="207.93065"
         x="90.240921"
         id="tspan897"
         sodipodi:role="line">s</tspan></text>
    <text
       xml:space="preserve"
       style="font-style:normal;font-variant:normal;font-weight:normal;font-stretch:normal;font-size:5.7196331px;line-height:0em;font-family:FreeSerif;-inkscape-font-specification:FreeSerif;font-variant-ligatures:normal;font-variant-position:normal;font-variant-caps:normal;font-variant-numeric:normal;font-variant-alternates:normal;font-feature-settings:normal;text-indent:0;text-align:start;text-decoration:none;text-decoration-line:none;text-decoration-style:solid;text-decoration-color:#000000;letter-spacing:0px;word-spacing:0px;text-transform:none;writing-mode:lr-tb;direction:ltr;text-orientation:mixed;dominant-baseline:auto;baseline-shift:baseline;text-anchor:start;white-space:normal;shape-padding:0;opacity:1;vector-effect:none;fill:#000000;fill-opacity:1;stroke:none;stroke-width:0.57869357;stroke-linecap:butt;stroke-linejoin:round;stroke-miterlimit:10;stroke-dasharray:none;stroke-dashoffset:0;stroke-opacity:1;marker:none"
       x="94.065407"
       y="209.18936"
       id="text903"><tspan
         sodipodi:role="line"
         id="tspan901"
         x="94.065407"
         y="209.18936"
         style="font-style:italic;fill:#000000;fill-opacity:1;stroke:none;stroke-width:0.57869357">a</tspan></text>
    <path
       inkscape:connector-curvature="0"
       id="path905"
       d="m 90.28203,201.57135 h 7.052232"
       style="opacity:1;vector-effect:none;fill:none;fill-opacity:1;stroke:#000000;stroke-width:0.14467342;stroke-linecap:butt;stroke-linejoin:round;stroke-miterlimit:10;stroke-dasharray:none;stroke-dashoffset:0;stroke-opacity:1;marker:none" />
  </g>
  <g
     id="g934"
     transform="rotate(-90,-45.321253,47.866889)">
    <text
       id="text924"
       y="105.65305"
       x="-38.229568"
       style="font-style:normal;font-variant:normal;font-weight:normal;font-stretch:normal;font-size:13.34703922px;line-height:0em;font-family:FreeSerif;-inkscape-font-specification:FreeSerif;font-variant-ligatures:normal;font-variant-position:normal;font-variant-caps:normal;font-variant-numeric:normal;font-variant-alternates:normal;font-feature-settings:normal;text-indent:0;text-align:start;text-decoration:none;text-decoration-line:none;text-decoration-style:solid;text-decoration-color:#000000;letter-spacing:0px;word-spacing:0px;text-transform:none;writing-mode:lr-tb;direction:ltr;text-orientation:mixed;dominant-baseline:auto;baseline-shift:baseline;text-anchor:start;white-space:normal;shape-padding:0;opacity:1;vector-effect:none;fill:#000000;fill-opacity:1;stroke:none;stroke-width:0.25;stroke-linecap:butt;stroke-linejoin:round;stroke-miterlimit:10;stroke-dasharray:none;stroke-dashoffset:0;stroke-opacity:1;marker:none"
       xml:space="preserve"><tspan
         style="font-style:normal;font-variant:normal;font-weight:normal;font-stretch:normal;font-family:FreeSans;-inkscape-font-specification:FreeSans;stroke-width:0.25"
         y="105.65305"
         x="-38.229568"
         id="tspan922"
         sodipodi:role="line">[m/s</tspan></text>
    <text
       xml:space="preserve"
       style="font-style:normal;font-variant:normal;font-weight:normal;font-stretch:normal;font-size:6.01654196px;line-height:0em;font-family:FreeSerif;-inkscape-font-specification:FreeSerif;font-variant-ligatures:normal;font-variant-position:normal;font-variant-caps:normal;font-variant-numeric:normal;font-variant-alternates:normal;font-feature-settings:normal;text-indent:0;text-align:start;text-decoration:none;text-decoration-line:none;text-decoration-style:solid;text-decoration-color:#000000;letter-spacing:0px;word-spacing:0px;text-transform:none;writing-mode:lr-tb;direction:ltr;text-orientation:mixed;dominant-baseline:auto;baseline-shift:baseline;text-anchor:start;white-space:normal;shape-padding:0;opacity:1;vector-effect:none;fill:#000000;fill-opacity:1;stroke:none;stroke-width:0.25;stroke-linecap:butt;stroke-linejoin:round;stroke-miterlimit:10;stroke-dasharray:none;stroke-dashoffset:0;stroke-opacity:1;marker:none"
       x="-12.502562"
       y="102.0116"
       id="text928"><tspan
         style="font-style:normal;font-variant:normal;font-weight:normal;font-stretch:normal;font-family:FreeSans;-inkscape-font-specification:FreeSans;stroke-width:0.25"
         sodipodi:role="line"
         id="tspan926"
         x="-12.502562"
         y="102.0116">2</tspan></text>
    <text
       xml:space="preserve"
       style="font-style:normal;font-variant:normal;font-weight:normal;font-stretch:normal;font-size:13.34703922px;line-height:0em;font-family:FreeSerif;-inkscape-font-specification:FreeSerif;font-variant-ligatures:normal;font-variant-position:normal;font-variant-caps:normal;font-variant-numeric:normal;font-variant-alternates:normal;font-feature-settings:normal;text-indent:0;text-align:start;text-decoration:none;text-decoration-line:none;text-decoration-style:solid;text-decoration-color:#000000;letter-spacing:0px;word-spacing:0px;text-transform:none;writing-mode:lr-tb;direction:ltr;text-orientation:mixed;dominant-baseline:auto;baseline-shift:baseline;text-anchor:start;white-space:normal;shape-padding:0;opacity:1;vector-effect:none;fill:#000000;fill-opacity:1;stroke:none;stroke-width:0.25;stroke-linecap:butt;stroke-linejoin:round;stroke-miterlimit:10;stroke-dasharray:none;stroke-dashoffset:0;stroke-opacity:1;marker:none"
       x="-8.6081572"
       y="105.65305"
       id="text953"><tspan
         sodipodi:role="line"
         id="tspan951"
         x="-8.6081572"
         y="105.65305"
         style="font-style:normal;font-variant:normal;font-weight:normal;font-stretch:normal;font-family:FreeSans;-inkscape-font-specification:FreeSans;stroke-width:0.25">]</tspan></text>
  </g>
  <text
     xml:space="preserve"
     style="font-style:normal;font-weight:normal;font-size:14.27755547px;line-height:1.25;font-family:sans-serif;letter-spacing:0px;word-spacing:0px;color-interpolation:auto;fill:#000000;fill-opacity:1;stroke:none;stroke-width:0.99999994;stroke-linecap:square;stroke-linejoin:miter;stroke-miterlimit:10;stroke-dasharray:none;stroke-dashoffset:0;stroke-opacity:1;color-rendering:auto;image-rendering:auto;shape-rendering:auto;text-rendering:auto"
     x="187.67528"
     y="181.28999"
     id="text1142-3"
     transform="scale(0.97052883,1.0303661)"><tspan
       sodipodi:role="line"
       id="tspan1140-6"
       x="187.67528"
       y="181.28999"
       style="font-style:normal;font-variant:normal;font-weight:normal;font-stretch:normal;font-family:FreeSans;-inkscape-font-specification:FreeSans;stroke-width:2.71370888">周期 [s]</tspan></text>
</svg>
