<?xml version="1.0" encoding="UTF-8" standalone="no"?>
<svg
   xmlns:dc="http://purl.org/dc/elements/1.1/"
   xmlns:cc="http://creativecommons.org/ns#"
   xmlns:rdf="http://www.w3.org/1999/02/22-rdf-syntax-ns#"
   xmlns:svg="http://www.w3.org/2000/svg"
   xmlns="http://www.w3.org/2000/svg"
   xmlns:sodipodi="http://sodipodi.sourceforge.net/DTD/sodipodi-0.dtd"
   xmlns:inkscape="http://www.inkscape.org/namespaces/inkscape"
   width="220"
   contentScriptType="text/ecmascript"
   preserveAspectRatio="xMidYMid meet"
   font-size="12px"
   stroke-miterlimit="10"
   zoomAndPan="magnify"
   version="1.0"
   contentStyleType="text/css"
   font-style="normal"
   height="200"
   font-weight="normal"
   id="svg99"
   sodipodi:docname="Fig09_cj41F300MbVsVB_b.svg"
   inkscape:version="0.48.5 r10040"
   style="font-size:12px;font-style:normal;font-weight:normal;fill:#000000;fill-opacity:1;stroke:#000000;stroke-width:1;stroke-linecap:square;stroke-linejoin:miter;stroke-miterlimit:10;stroke-opacity:1;stroke-dasharray:none;stroke-dashoffset:0;font-family:Dialog"
   inkscape:export-filename="C:\Users\keita\Downloads\09.png"
   inkscape:export-xdpi="800"
   inkscape:export-ydpi="800">
  <metadata
     id="metadata103">
    <rdf:RDF>
      <cc:Work
         rdf:about="">
        <dc:format>image/svg+xml</dc:format>
        <dc:type
           rdf:resource="http://purl.org/dc/dcmitype/StillImage" />
        <dc:title></dc:title>
      </cc:Work>
    </rdf:RDF>
  </metadata>
  <sodipodi:namedview
     pagecolor="#ffffff"
     bordercolor="#666666"
     borderopacity="1"
     objecttolerance="10"
     gridtolerance="10"
     guidetolerance="10"
     inkscape:pageopacity="0"
     inkscape:pageshadow="2"
     inkscape:window-width="1536"
     inkscape:window-height="801"
     id="namedview101"
     showgrid="false"
     inkscape:zoom="2.4468567"
     inkscape:cx="148.43706"
     inkscape:cy="97.874015"
     inkscape:window-x="-8"
     inkscape:window-y="-8"
     inkscape:window-maximized="1"
     inkscape:current-layer="svg99"
     fit-margin-top="3"
     fit-margin-left="3"
     fit-margin-right="3"
     fit-margin-bottom="3"
     showguides="true"
     inkscape:guide-bbox="true" />
  <!--jun.util.prepareGraphics2D-->
  <defs
     id="genericDefs">
    <defs
       id="defs1">
      <clipPath
         id="clipPath1"
         clipPathUnits="userSpaceOnUse">
        <path
           inkscape:connector-curvature="0"
           id="path3"
           d="M 0,0 H 200 V 200 H 0 z" />
      </clipPath>
      <clipPath
         id="clipPath2"
         clipPathUnits="userSpaceOnUse">
        <path
           inkscape:connector-curvature="0"
           id="path6"
           d="M 92,75 V 275 H -108 V 75 z" />
      </clipPath>
      <clipPath
         id="clipPath3"
         clipPathUnits="userSpaceOnUse">
        <path
           inkscape:connector-curvature="0"
           id="path9"
           d="M 48,8 V 159 H 188 V 8 z" />
      </clipPath>
    </defs>
  </defs>
  <g
     style="fill:#ffffff;stroke:#ffffff"
     id="g17"
     transform="translate(20.755905,-0.0214386)">
    <rect
       style="stroke:none"
       id="rect15"
       height="151"
       width="140"
       clip-path="url(#clipPath1)"
       y="8"
       x="48" />
  </g>
  <line
     clip-path="url(#clipPath1)"
     x1="48"
     x2="188"
     y1="159"
     y2="159"
     id="line19"
     style="font-size:10px;fill:none;stroke:#808080;stroke-width:0.5;font-family:sans-serif"
     transform="translate(20.755905,-0.0214386)" />
  <text
     x="63.25"
     y="172.79883"
     clip-path="url(#clipPath1)"
     xml:space="preserve"
     id="text21"
     style="font-size:14px;font-style:normal;font-variant:normal;font-weight:normal;font-stretch:normal;text-align:start;line-height:121.00000381%;writing-mode:lr-tb;text-anchor:start;fill:#000000;stroke:none;font-family:IPAexGothic;-inkscape-font-specification:IPAexGothic"
     transform="translate(19.121155,1.2046242)"
     sodipodi:linespacing="121%">-500</text>
  <line
     clip-path="url(#clipPath1)"
     x1="74.25"
     x2="74.25"
     y1="161"
     y2="159"
     id="line23"
     style="font-size:10px;fill:none;stroke:#808080;stroke-width:0.5;font-family:sans-serif"
     transform="translate(20.755905,-0.0214386)" />
  <text
     x="115"
     y="172.79883"
     clip-path="url(#clipPath1)"
     xml:space="preserve"
     id="text25"
     style="font-size:14px;font-style:normal;font-variant:normal;font-weight:normal;font-stretch:normal;text-align:start;line-height:121.00000381%;writing-mode:lr-tb;text-anchor:start;fill:#000000;stroke:none;font-family:IPAexGothic;-inkscape-font-specification:IPAexGothic"
     transform="translate(19.121155,1.2046242)"
     sodipodi:linespacing="121%">0</text>
  <line
     clip-path="url(#clipPath1)"
     x1="118"
     x2="118"
     y1="161"
     y2="159"
     id="line27"
     style="font-size:10px;fill:none;stroke:#808080;stroke-width:0.5;font-family:sans-serif"
     transform="translate(20.755905,-0.0214386)" />
  <text
     x="152.75"
     y="172.79883"
     clip-path="url(#clipPath1)"
     xml:space="preserve"
     id="text29"
     style="font-size:14px;font-style:normal;font-variant:normal;font-weight:normal;font-stretch:normal;text-align:start;line-height:121.00000381%;writing-mode:lr-tb;text-anchor:start;fill:#000000;stroke:none;font-family:IPAexGothic;-inkscape-font-specification:IPAexGothic"
     transform="translate(19.121155,1.2046242)"
     sodipodi:linespacing="121%">500</text>
  <line
     clip-path="url(#clipPath1)"
     x1="161.75"
     x2="161.75"
     y1="161"
     y2="159"
     id="line31"
     style="font-size:10px;fill:none;stroke:#808080;stroke-width:0.5;font-family:sans-serif"
     transform="translate(20.755905,-0.0214386)" />
  <line
     clip-path="url(#clipPath1)"
     x1="48"
     x2="48"
     y1="8"
     y2="159"
     id="line35"
     style="font-size:10px;fill:none;stroke:#808080;stroke-width:0.5;font-family:sans-serif"
     transform="translate(20.755905,-0.0214386)" />
  <text
     x="20"
     y="154.41647"
     clip-path="url(#clipPath1)"
     xml:space="preserve"
     id="text37"
     style="font-size:14px;font-style:normal;font-variant:normal;font-weight:normal;font-stretch:normal;text-align:start;line-height:121.00000381%;writing-mode:lr-tb;text-anchor:start;fill:#000000;stroke:none;font-family:IPAexGothic;-inkscape-font-specification:IPAexGothic"
     transform="translate(12.086332,-0.0214386)"
     sodipodi:linespacing="121%">-300</text>
  <line
     clip-path="url(#clipPath1)"
     x1="46"
     x2="48"
     y1="150.11765"
     y2="150.11765"
     id="line39"
     style="font-size:10px;fill:none;stroke:#808080;stroke-width:0.5;font-family:sans-serif"
     transform="translate(20.755905,-0.0214386)" />
  <text
     x="20"
     y="132.2106"
     clip-path="url(#clipPath1)"
     xml:space="preserve"
     id="text41"
     style="font-size:14px;font-style:normal;font-variant:normal;font-weight:normal;font-stretch:normal;text-align:start;line-height:121.00000381%;writing-mode:lr-tb;text-anchor:start;fill:#000000;stroke:none;font-family:IPAexGothic;-inkscape-font-specification:IPAexGothic"
     transform="translate(12.086332,-0.0214386)"
     sodipodi:linespacing="121%">-200</text>
  <line
     clip-path="url(#clipPath1)"
     x1="46"
     x2="48"
     y1="127.91177"
     y2="127.91177"
     id="line43"
     style="font-size:10px;fill:none;stroke:#808080;stroke-width:0.5;font-family:sans-serif"
     transform="translate(20.755905,-0.0214386)" />
  <text
     x="20"
     y="110.00471"
     clip-path="url(#clipPath1)"
     xml:space="preserve"
     id="text45"
     style="font-size:14px;font-style:normal;font-variant:normal;font-weight:normal;font-stretch:normal;text-align:start;line-height:121.00000381%;writing-mode:lr-tb;text-anchor:start;fill:#000000;stroke:none;font-family:IPAexGothic;-inkscape-font-specification:IPAexGothic"
     transform="translate(12.086332,-0.0214386)"
     sodipodi:linespacing="121%">-100</text>
  <line
     clip-path="url(#clipPath1)"
     x1="46"
     x2="48"
     y1="105.70588"
     y2="105.70588"
     id="line47"
     style="font-size:10px;fill:none;stroke:#808080;stroke-width:0.5;font-family:sans-serif"
     transform="translate(20.755905,-0.0214386)" />
  <text
     x="36"
     y="87.798828"
     clip-path="url(#clipPath1)"
     xml:space="preserve"
     id="text49"
     style="font-size:14px;font-style:normal;font-variant:normal;font-weight:normal;font-stretch:normal;text-align:start;line-height:121.00000381%;writing-mode:lr-tb;text-anchor:start;fill:#000000;stroke:none;font-family:IPAexGothic;-inkscape-font-specification:IPAexGothic"
     transform="translate(12.086332,-0.0214386)"
     sodipodi:linespacing="121%">0</text>
  <line
     clip-path="url(#clipPath1)"
     x1="46"
     x2="48"
     y1="83.5"
     y2="83.5"
     id="line51"
     style="font-size:10px;fill:none;stroke:#808080;stroke-width:0.5;font-family:sans-serif"
     transform="translate(20.755905,-0.0214386)" />
  <text
     x="24"
     y="65.592941"
     clip-path="url(#clipPath1)"
     xml:space="preserve"
     id="text53"
     style="font-size:14px;font-style:normal;font-variant:normal;font-weight:normal;font-stretch:normal;text-align:start;line-height:121.00000381%;writing-mode:lr-tb;text-anchor:start;fill:#000000;stroke:none;font-family:IPAexGothic;-inkscape-font-specification:IPAexGothic"
     transform="translate(12.086332,-0.0214386)"
     sodipodi:linespacing="121%">100</text>
  <line
     clip-path="url(#clipPath1)"
     x1="46"
     x2="48"
     y1="61.294117"
     y2="61.294117"
     id="line55"
     style="font-size:10px;fill:none;stroke:#808080;stroke-width:0.5;font-family:sans-serif"
     transform="translate(20.755905,-0.0214386)" />
  <text
     x="24"
     y="43.387062"
     clip-path="url(#clipPath1)"
     xml:space="preserve"
     id="text57"
     style="font-size:14px;font-style:normal;font-variant:normal;font-weight:normal;font-stretch:normal;text-align:start;line-height:121.00000381%;writing-mode:lr-tb;text-anchor:start;fill:#000000;stroke:none;font-family:IPAexGothic;-inkscape-font-specification:IPAexGothic"
     transform="translate(12.086332,-0.0214386)"
     sodipodi:linespacing="121%">200</text>
  <line
     clip-path="url(#clipPath1)"
     x1="46"
     x2="48"
     y1="39.088234"
     y2="39.088234"
     id="line59"
     style="font-size:10px;fill:none;stroke:#808080;stroke-width:0.5;font-family:sans-serif"
     transform="translate(20.755905,-0.0214386)" />
  <text
     x="24"
     y="21.181181"
     clip-path="url(#clipPath1)"
     xml:space="preserve"
     id="text61"
     style="font-size:14px;font-style:normal;font-variant:normal;font-weight:normal;font-stretch:normal;text-align:start;line-height:121.00000381%;writing-mode:lr-tb;text-anchor:start;fill:#000000;stroke:none;font-family:IPAexGothic;-inkscape-font-specification:IPAexGothic"
     transform="translate(12.086332,-0.0214386)"
     sodipodi:linespacing="121%">300</text>
  <line
     clip-path="url(#clipPath1)"
     x1="46"
     x2="48"
     y1="16.882353"
     y2="16.882353"
     id="line63"
     style="font-size:10px;fill:none;stroke:#808080;stroke-width:0.5;font-family:sans-serif"
     transform="translate(20.755905,-0.0214386)" />
  <g
     style="fill:#c0c0c0;stroke:#c0c0c0;stroke-width:0.5;stroke-linecap:butt;stroke-linejoin:bevel;stroke-miterlimit:0;stroke-dasharray:2, 2;font-family:sans-serif"
     id="g89"
     stroke-miterlimit="0"
     transform="translate(20.755905,-0.0214386)">
    <line
       style="fill:none"
       id="line69"
       y2="159"
       y1="8"
       x2="74.25"
       x1="74.25"
       clip-path="url(#clipPath3)" />
    <line
       style="fill:none"
       id="line71"
       y2="159"
       y1="8"
       x2="118"
       x1="118"
       clip-path="url(#clipPath3)" />
    <line
       style="fill:none"
       id="line73"
       y2="159"
       y1="8"
       x2="161.75"
       x1="161.75"
       clip-path="url(#clipPath3)" />
    <line
       style="fill:none"
       id="line75"
       y2="150.11765"
       y1="150.11765"
       x2="188"
       x1="48"
       clip-path="url(#clipPath3)" />
    <line
       style="fill:none"
       id="line77"
       y2="127.91177"
       y1="127.91177"
       x2="188"
       x1="48"
       clip-path="url(#clipPath3)" />
    <line
       style="fill:none"
       id="line79"
       y2="105.70588"
       y1="105.70588"
       x2="188"
       x1="48"
       clip-path="url(#clipPath3)" />
    <line
       style="fill:none"
       id="line81"
       y2="83.5"
       y1="83.5"
       x2="188"
       x1="48"
       clip-path="url(#clipPath3)" />
    <line
       style="fill:none"
       id="line83"
       y2="61.294117"
       y1="61.294117"
       x2="188"
       x1="48"
       clip-path="url(#clipPath3)" />
    <line
       style="fill:none"
       id="line85"
       y2="39.088234"
       y1="39.088234"
       x2="188"
       x1="48"
       clip-path="url(#clipPath3)" />
    <line
       style="fill:none"
       id="line87"
       y2="16.882353"
       y1="16.882353"
       x2="188"
       x1="48"
       clip-path="url(#clipPath3)" />
  </g>
  <g
     style="fill:#ff0000;stroke:#ff0000;stroke-width:1.5;stroke-linecap:round;stroke-linejoin:round;stroke-miterlimit:0;font-family:sans-serif"
     id="g95"
     stroke-miterlimit="0"
     transform="translate(20.755905,-0.0214386)">
    <path
       inkscape:connector-curvature="0"
       id="path91"
       d="m 117.88006,83.657478 c 0.0134,-0.02429 0.0246,-0.01076 0.0227,-0.0056 -0.0593,0.06315 0.12057,-0.155651 -0.12341,0.154559 0.32664,-0.406938 0.11319,-0.136517 -0.0682,0.08908 0.24085,-0.29609 1.21939,-1.512739 1.03589,-1.282978 -1.00338,1.168475 -0.12967,0.257368 -0.35189,0.426991 0.90171,-1.073292 -1.24933,1.438884 -1.52262,1.864356 -0.75691,0.976561 -2.06806,2.547528 -2.52416,3.175889 2.65556,-3.331735 5.47135,-6.689503 8.01676,-10.012194 -2.92093,3.749601 -5.98531,7.392037 -8.91504,11.136716 2.51455,-3.203585 5.72643,-6.988775 7.85161,-9.842768 -0.15647,0.452996 -1.58877,1.97167 -2.19674,2.775461 -1.34586,1.610281 -2.5326,3.364728 -3.97779,4.874257 1.34297,-1.480085 0.81324,-1.005928 1.56796,-1.867435 1.63601,-1.836075 3.42191,-4.389669 4.79104,-5.916968 -2.62468,3.045131 -4.96819,6.32515 -7.58427,9.375894 2.75275,-3.404536 5.73795,-7.036674 8.33609,-10.326637 -3.49661,4.208332 -6.98104,8.710956 -10.35204,12.842356 3.53837,-4.314821 7.23365,-8.99108 10.5761,-13.164564 -2.57442,3.250909 -5.27311,6.605299 -7.83782,9.745218 2.14803,-2.595163 4.20836,-5.265043 6.39227,-7.826904 -2.11375,2.420651 -4.3612,5.381258 -6.19388,7.584008 2.38648,-2.713674 4.4752,-5.677749 6.8135,-8.423752 -1.99359,2.28391 -4.29361,5.47452 -5.9416,7.352599 0.43971,-0.557264 2.63794,-3.282683 1.47406,-1.829044 1.21325,-1.420072 2.6985,-3.31843 3.64457,-4.544773 -2.08536,2.583967 -4.482,5.654191 -6.49053,8.063045 2.88765,-3.479881 5.85013,-7.202894 8.72722,-10.814848 -3.8808,4.728962 -7.67816,9.540357 -11.48731,14.321908 4.49514,-5.701905 9.15319,-11.276344 13.61183,-17.007055 -5.26829,6.650544 -10.85725,13.250719 -15.92794,19.931668 6.35742,-7.744728 12.454,-15.705049 18.79151,-23.462137 -6.42682,7.738071 -12.52569,15.739945 -18.88347,23.533715 5.51995,-6.903606 11.06377,-13.792324 16.59999,-20.680169 -4.3408,5.329369 -8.60574,10.732997 -12.93005,16.074528 1.99149,-2.337471 3.76681,-4.855087 5.77609,-7.183539 -2.65024,2.817215 -4.80282,6.049705 -7.22746,9.045273 8.35921,-9.917819 16.45215,-20.06125 24.29078,-30.396798 2.23317,-2.759574 4.41454,-5.56231 6.71625,-8.265582 -12.83983,15.141698 -25.25537,30.635582 -37.2671,46.442021 -8.964175,11.495625 -18.399387,22.611655 -27.585307,33.926105 9.607718,-10.31833 18.150981,-21.612 26.627787,-32.87811 19.93454,-25.0161 40.68653,-49.379489 60.38392,-74.583839 2.0049,-2.68242 -1.27954,0.329734 -1.70806,1.475892 -8.9564,11.772955 -18.64776,22.980087 -27.7968,34.60849 -20.10539,25.032351 -40.24959,50.033237 -60.191598,75.195997 -2.130183,2.69545 -4.693347,5.7246 -6.564705,8.21217 10.995952,-13.39946 21.599012,-27.11994 32.629573,-40.49397 18.25161,-22.552547 36.2372,-45.326125 54.19811,-68.105673 0.73283,-0.320553 -2.2705,3.115907 -3.10351,4.227391 -15.72624,19.159303 -31.22564,38.505092 -46.21134,58.250578 -4.24602,5.507454 -8.650426,10.908864 -13.473851,15.923584 10.925881,-13.61035 22.548031,-26.737731 32.859661,-40.854636 1.83539,-3.496851 4.68146,-6.33094 7.49779,-9.044765 -9.39577,11.72732 -19.28344,23.074953 -28.395,35.026781 0.74713,0.1022 2.20351,-2.169388 2.85558,-3.30105 7.89005,-10.4985 16.75154,-20.237896 24.64928,-30.722229 -1.30258,0.497059 -2.37499,2.778434 -3.51157,3.973447 -9.98818,12.703012 -20.19327,25.267994 -30.139418,37.984032 17.961508,-21.451551 34.769838,-43.832837 52.411018,-65.542691 -0.0297,-0.216416 -2.29067,2.752766 -3.15851,3.761633 C 130.52416,66.984779 114.55625,88.033509 97.883052,108.519 90.980458,117.18401 84.035674,125.81883 77.312129,134.62369 105.57887,98.854207 134.73205,63.780764 162.55989,27.660305 c 2.31683,-2.824631 -0.57551,1.130334 -1.3846,2.062275 -25.89639,31.664661 -51.49956,63.56879 -76.770868,95.73515 -7.475691,9.36692 -14.845348,18.82409 -22.52388,28.02548 C 90.409206,118.56984 118.6879,83.447855 146.45581,47.924467 155.27221,36.865158 164.22599,25.911558 173.23406,15.010305 156.42904,35.405882 139.6121,55.796084 123.32291,76.609705 106.93195,97.62948 90.293213,118.4529 73.422835,139.08966 c -0.671724,0.84186 -3.8781,4.85754 -2.848611,3.50453 11.752611,-13.87941 23.043424,-28.1365 34.041116,-42.619814 16.139,-20.545016 32.88792,-40.601797 49.23767,-60.978592 -7.48401,7.630267 -12.7375,17.051753 -19.79898,25.043811 -11.08206,13.685292 -22.81496,26.855043 -33.47987,40.870165 -0.576246,2.24783 -3.157571,4.35133 -4.698938,6.48482 -2.037516,2.38775 -4.095592,4.76146 -6.278048,7.01867 10.573526,-12.72372 21.591546,-25.149984 31.603926,-38.356779 8.73405,-11.448552 17.46635,-22.90125 26.77258,-33.89619 -13.26265,15.349746 -24.89065,32.00681 -37.96953,47.507611 -6.09253,7.585218 -12.632023,14.901258 -18.387291,22.702158 5.036111,-5.93369 9.800841,-12.11645 14.743411,-18.138803 8.89141,-11.340999 18.07817,-22.458314 26.79986,-33.925176 1.1518,-0.928854 -1.88489,2.556837 -2.4546,3.30323 -7.73707,8.939752 -14.57352,18.58906 -21.93019,27.829714 -0.78144,0.985765 -4.34015,5.131175 -1.94716,2.155594 5.69914,-6.902805 11.31921,-13.87313 16.57178,-21.118247 2.99994,-3.678206 5.95711,-7.397096 9.1307,-10.928269 -7.683,9.242189 -15.37578,18.488028 -22.61355,28.089768 -2.75643,3.50839 -6.24546,7.276849 -8.50611,10.667799 4.79603,-5.945871 9.42736,-12.034749 14.19082,-18.011179 3.97054,-5.160997 8.68964,-10.056862 12.44914,-15.174562 -4.24991,5.368443 -8.96197,10.453467 -12.98284,16.022713 1.37961,-0.922987 -1.47097,1.873806 -2.09532,2.684711 0.33947,-0.486032 2.32945,-2.805854 3.26191,-3.968787 2.80586,-3.49099 5.84672,-6.829308 8.41488,-10.490204 -1.5633,1.522494 -2.57019,2.568752 -0.55341,0.319024 1.50199,-1.669346 3.11759,-3.479135 4.56763,-5.038809 -3.63424,4.319927 -7.69023,8.413263 -10.89709,13.016075 1.47194,-0.836298 -1.96022,2.644559 -2.4749,3.410422 -3.52844,4.256701 -7.29926,8.388344 -10.66171,12.736324 4.99791,-4.617869 8.14743,-10.767526 12.77991,-15.720706 3.24191,-3.972211 6.67632,-7.800916 9.75607,-11.89729 -2.28039,2.324376 -4.44204,4.849966 -5.94298,7.637286 -3.01256,3.82136 -6.16699,7.528816 -9.36919,11.191918 4.63872,-4.95045 8.46199,-10.553016 12.69346,-15.828865 -0.34248,0.530701 -2.20498,2.761842 -3.12853,3.942131 -4.18837,5.407929 -8.5255,10.703278 -12.79474,16.042733 6.14169,-7.452769 12.08162,-15.080278 18.16676,-22.575233 -4.42854,5.432631 -8.77819,10.985986 -13.22178,16.424279 -2.01865,2.611841 -0.28108,0.295699 0.82116,-0.966313 3.17152,-3.926476 6.23437,-7.94854 9.52981,-11.766348 -1.47597,1.478361 -2.5875,2.93561 -3.60782,4.3988 -2.39218,3.073179 -5.18806,5.948828 -7.35995,9.118538 0.8528,-0.518029 -1.9814,2.342465 -2.52337,3.045094 -2.0038,2.220394 1.37796,-1.659963 1.98859,-2.406585 3.74066,-4.198768 6.78625,-9.027852 10.61905,-13.057345 -3.56362,3.92911 -6.56668,8.302046 -10.01611,12.31406 5.07538,-5.81758 9.51805,-12.149033 14.50326,-18.042435 -6.33634,8.159234 -13.04049,16.028799 -19.47975,24.103754 -0.10057,0.374397 2.04669,-2.398868 2.77229,-3.251248 5.18769,-6.409322 10.51617,-12.710801 15.39472,-19.357071 2.36901,-2.707462 -0.11302,0.331976 -1.07626,1.461804 -3.88886,4.792877 -7.47727,9.802859 -11.69847,14.324863 -1.69033,2.123863 -3.92876,4.29889 -5.17311,6.496501 -0.61422,1.337808 -0.49954,0.612643 1.12692,-1.165419 5.63944,-6.641103 10.97851,-13.535821 16.26829,-20.44377 2.50951,-2.806013 -0.29793,0.6196 -1.21824,1.697379 -1.66158,2.101835 -3.7271,4.313322 -5.10322,6.374233 2.18451,-2.18096 -0.8197,0.951524 -1.50181,1.771239 -2.12135,2.280176 -3.714,4.939026 -5.8152,7.245311 5.34968,-6.343643 10.47388,-12.897069 15.57679,-19.430661 -6.53849,8.345254 -13.28336,16.536817 -19.92602,24.802422 -1.67344,2.256602 -1.67939,1.927969 0.11649,-0.135033 6.86359,-8.18379 13.48424,-16.567872 20.06314,-24.97978 -4.46926,5.370313 -8.58243,11.040018 -13.06981,16.390371 2.27769,-2.52543 4.19784,-5.368374 6.34424,-7.959244 -1.53038,1.929065 -2.94536,3.72111 -4.34464,5.432602 -2.05196,2.275468 0.78432,-0.880528 -0.61924,0.722183 -0.58811,0.633615 -2.32099,2.836421 -0.7484,1.050062 2.95125,-3.882317 6.25607,-7.517578 9.14274,-11.434049 -1.59732,1.857176 -3.25946,4.245422 -5.11819,6.306122 -3.67626,4.419967 -7.09136,9.05272 -10.86954,13.386746 6.20811,-7.200894 11.94744,-14.799177 17.96719,-22.155487 0.54918,-0.784034 -1.55233,2.051612 -1.97647,2.501938 -5.31419,6.226668 -10.2817,12.753871 -15.41573,19.111768 6.7628,-7.954298 12.94731,-16.372415 19.60376,-24.410751 -7.6967,9.313729 -15.20202,18.786136 -22.61116,28.326687 8.09869,-10.331252 16.49364,-20.448219 24.55644,-30.815945 -1.58749,2.109465 -4.01735,4.952026 -5.92468,7.336289 -6.79501,8.217645 -13.13567,16.799455 -19.97757,24.977488 9.18398,-10.97757 17.8496,-22.374296 26.89736,-33.46283 -8.62404,10.454445 -16.82705,21.251887 -25.50054,31.664889 6.83333,-8.465594 13.79318,-16.836668 20.46676,-25.428329 1.60146,-2.148194 -1.03386,1.387367 -1.57397,1.955795 -5.25205,6.325852 -10.51556,13.250884 -15.52217,19.414879 5.43995,-6.975146 11.36689,-13.892719 16.59292,-20.833276 -4.89042,6.319411 -9.99469,12.511779 -14.95427,18.752583 4.25167,-5.365461 8.64842,-10.62587 12.8324,-16.049445 -5.24727,6.264452 -10.10193,12.842358 -15.37467,19.084907 6.69502,-7.845145 12.90237,-16.125437 19.43418,-24.083381 -5.66458,7.192595 -11.98562,14.645106 -17.28965,21.637262 3.96186,-5.401485 8.47539,-10.37529 12.48121,-15.743204 -4.00336,5.25169 -8.47369,10.176685 -12.31246,15.531679 3.96709,-5.395345 8.62724,-10.553931 12.55994,-15.793276 -3.67381,4.715489 -7.69326,9.508054 -11.48026,14.271269 4.65101,-5.471874 9.06774,-11.334818 13.57527,-16.798751 -5.51745,6.757104 -11.01856,13.543013 -16.39837,20.402968 6.05382,-7.482191 12.24509,-15.185597 18.10443,-22.623678 -5.93438,7.427745 -11.80469,14.923368 -17.87864,22.228178 6.95261,-8.29902 13.59439,-16.862819 20.43588,-25.256196 -7.63041,9.162565 -15.04709,18.76739 -22.53262,27.883971 5.04956,-6.080096 10.14295,-12.698245 14.96557,-18.61676 -2.23248,2.944651 -4.85818,5.997978 -6.97729,8.788 3.13469,-3.800034 6.56469,-8.122035 9.36101,-11.745933 -4.80951,5.895115 -9.44301,11.940519 -14.31371,17.784261 3.9901,-4.60548 7.51426,-9.587166 11.52046,-14.177718 -1.1067,1.206098 -2.44314,3.158207 -3.29241,4.042464 1.55551,-1.855587 -0.76717,0.721933 -1.18076,1.351573 -1.02959,1.554637 -2.72299,3.349131 -3.60305,4.565141 3.13256,-3.705573 6.05854,-7.583999 9.11342,-11.352905 -3.63808,4.332196 -7.34233,9.2637 -10.72536,13.417416 3.96274,-4.82406 7.69883,-9.83175 11.73575,-14.594913 -3.22565,3.68671 -6.00909,7.728652 -9.23791,11.411639 2.7579,-3.160084 5.34317,-6.788924 7.96525,-9.862382 -5.08069,5.982986 -9.82613,12.238123 -14.75246,18.345757 6.71279,-8.232528 13.27538,-16.588571 19.95139,-24.85104 -4.33558,5.443064 -8.95379,11.267682 -13.17682,16.436387 1.38583,-1.880011 3.47832,-4.269 4.60178,-5.773273 -1.23484,1.54221 -2.74392,3.402627 -3.82123,4.772131 1.48435,-1.825559 2.99,-3.719347 4.26674,-5.283586 0.75367,-0.998449 -1.31954,1.719772 -0.8945,1.086639 1.87234,-2.322985 0.0872,-0.164549 -0.75976,0.854485 -1.60956,1.989418 -3.41672,4.553902 -4.92477,6.185737 3.99299,-4.67798 7.60079,-9.666355 11.62143,-14.321529 -4.14956,4.892488 -8.28966,10.314637 -12.20413,15.08289 2.89706,-3.665896 6.2224,-7.741232 8.95044,-11.075372 -1.94656,2.249282 -4.34821,5.384831 -5.88208,7.273223 1.92717,-2.381014 4.21609,-5.22917 5.90758,-7.352442 -3.22313,3.859933 -6.58907,8.140977 -9.53716,11.88516 4.48092,-5.681488 9.13117,-11.24842 13.58058,-16.942927 -4.03252,5.042451 -8.13258,10.16383 -12.13976,15.146425 1.34364,-1.839838 3.56168,-4.436112 4.6006,-5.740155 0.64592,-0.724115 0.27417,-0.450931 -0.1406,0.157623 -0.28731,0.329245 -2.20142,2.696406 -1.50021,1.887508 2.628,-3.071962 5.0563,-6.303846 7.62351,-9.421955 -3.98368,4.734226 -8.00197,9.843526 -11.72103,14.544015 2.91964,-3.736151 6.19648,-7.672231 8.98551,-11.235678 -2.25573,2.818452 -5.07855,6.245756 -6.97755,8.726432 2.56027,-3.28011 5.75866,-7.047172 8.00939,-9.997484 -2.26439,2.877186 -5.64048,7.000573 -7.35364,9.132522 2.25621,-2.625688 4.65556,-5.815977 6.66156,-8.247961 -2.97929,3.561792 -5.87422,7.277884 -8.73629,10.884312 3.83254,-4.785169 7.91999,-9.808757 11.59091,-14.453379 -3.9175,4.905814 -8.07099,9.972556 -11.8618,14.766436 3.16851,-3.966551 6.61116,-8.136722 9.61426,-11.980009 -2.12303,2.656574 -4.67622,5.869492 -6.57149,8.183092 1.94074,-2.506094 4.222,-5.021081 5.99616,-7.474209 -3.23997,3.9795 -6.46979,8.058874 -9.66745,12.020069 3.25288,-3.941671 6.35969,-8.004134 9.63051,-11.9301 -1.34462,1.739921 -3.92154,4.709834 -4.5857,5.738226 1.07628,-1.434589 2.36706,-2.946311 3.38844,-4.280174 -2.1184,2.618123 -4.77869,5.908252 -6.58154,8.178927 3.01968,-3.638834 5.90586,-7.399602 8.91998,-11.034492 -3.41869,4.126006 -6.74587,8.338728 -10.0987,12.515797 4.08325,-4.994332 8.25706,-10.221519 12.18131,-15.160589 -4.13186,5.032962 -8.25873,10.348155 -12.29124,15.292835 2.66212,-3.234539 6.02032,-7.625887 8.25951,-10.232571 -1.58878,1.949009 -3.29666,4.032099 -4.80279,5.929963 0.66836,-0.881093 1.56518,-1.915974 2.16094,-2.679693 -0.4052,0.493055 -1.28828,1.613109 -0.34183,0.425982 0.45877,-0.496244 1.37984,-1.755173 1.58547,-1.958408 -0.9908,1.157225 -2.05267,2.550576 -2.94265,3.649132 1.25512,-1.540492 2.98535,-3.729209 3.9555,-4.886841 -1.46435,1.812632 -3.59928,4.363482 -4.6802,5.80339 1.17253,-1.491637 2.43186,-3.01372 3.57452,-4.475769 -0.84346,1.148634 -2.67112,3.193907 -3.06061,3.826385 1.56851,-1.90798 3.64698,-4.519449 4.88758,-6.049857 -1.97739,2.273241 -4.30524,5.42802 -5.92748,7.316867 1.67471,-2.097383 4.05315,-4.972442 5.35998,-6.663834 -2.59047,3.129281 -5.29702,6.62185 -7.73059,9.606671 3.3841,-4.048057 6.98826,-8.7389 10.0935,-12.51918 -2.81483,3.506061 -6.08832,7.511098 -8.63374,10.737569 2.17592,-2.684264 4.80697,-6.058978 6.71912,-8.321207 -2.46722,2.968547 -5.14534,6.291584 -7.37635,9.12665 3.07811,-3.893634 6.53304,-7.899662 9.3835,-11.724488 -3.36771,4.247135 -6.80595,8.446016 -10.16053,12.70148 2.7437,-3.376203 5.53325,-6.977328 8.23801,-10.230478 -1.54208,1.832977 -3.17965,3.969028 -4.57817,5.68059 1.17256,-1.37878 2.52721,-3.189181 3.53755,-4.397179 -1.65044,1.903994 -3.60683,4.503172 -4.94,6.110521 1.88818,-2.191976 3.88972,-4.917696 5.59123,-6.900023 -1.25185,1.453354 -2.50845,3.199725 -3.71358,4.56605 0.33259,-0.441356 1.43479,-1.673937 1.36248,-1.69215 -0.53495,0.699816 -1.68114,2.00924 -1.96908,2.477694 1.68834,-2.059836 3.44923,-4.253865 5.03612,-6.277909 -2.33896,2.843084 -4.87246,6.118563 -7.0445,8.751553 2.02582,-2.470291 4.38691,-5.48757 6.18279,-7.661098 -1.32265,1.657458 -3.75206,4.578386 -4.50975,5.602365 1.22042,-1.507822 3.04345,-3.816458 3.96109,-4.903657 -1.20375,1.408025 -2.50503,3.109921 -3.57642,4.417993 0.74075,-0.945366 1.74165,-2.177061 2.36524,-2.931631 -0.67419,0.807669 -2.19751,2.662749 -2.3713,2.938131 1.23797,-1.502767 2.76781,-3.426226 3.81321,-4.731878 -1.73254,2.075766 -3.45605,4.31131 -5.12683,6.338698 2.07151,-2.537841 4.64956,-5.664092 6.36187,-7.900242 -1.81539,2.299879 -3.97994,4.974117 -5.64907,7.021523 0.93371,-1.133973 2.86052,-3.542046 3.34406,-4.138393 -0.87581,1.079903 -2.16181,2.631212 -2.80758,3.48514 0.973,-1.220259 2.11682,-2.573214 2.97998,-3.715057 -0.72533,0.970743 -1.74309,2.13784 -2.15697,2.703553 0.88403,-1.09516 2.37378,-2.919691 2.93247,-3.651366 -1.31032,1.588174 -2.99463,3.750448 -4.06075,5.055071 1.21975,-1.479194 2.74681,-3.477547 3.77243,-4.703073 -1.01666,1.244041 -2.41988,3.064494 -3.25192,4.032999 0.28065,-0.31161 1.1901,-1.5469 1.1527,-1.419431 -0.6895,0.878841 0.9249,-1.108886 1.09886,-1.347223 1.02128,-1.24932 1.83907,-2.30743 0.3116,-0.409908 -0.3975,0.570654 -2.41908,2.958827 -2.0877,2.617377 0.2456,-0.340228 1.82075,-2.302876 1.25135,-1.582068 -0.76607,0.866651 -1.56383,2.0242 -2.25537,2.791762 1.25073,-1.478743 2.60627,-3.245784 3.74053,-4.622158 -0.81038,0.952895 -1.76756,2.259678 -2.46778,3.052659 0.52493,-0.575687 1.21017,-1.534226 1.59871,-1.970253 -0.56285,0.621878 -1.83219,2.306315 -2.00324,2.488617 0.42459,-0.510397 1.41924,-1.785699 1.58281,-1.980527 -0.39418,0.491488 -1.28765,1.590678 -1.4815,1.845412 0.7519,-0.857826 2.37283,-2.973439 2.65688,-3.289998 -0.99332,1.170901 -2.1107,2.672848 -2.9965,3.705211 0.41972,-0.484038 2.44193,-3.047472 2.06,-2.54459 -0.4199,0.520983 -1.21681,1.489676 -1.4521,1.79256 -0.007,-0.01517 0.1735,-0.178294 0.5084,-0.61607 0.37829,-0.460397 1.18583,-1.488859 0.4351,-0.546232 -1.10044,1.363569 0.50825,-0.633442 0.75051,-0.925376 -0.51284,0.599808 -1.57921,1.96058 -1.78883,2.210551 0.29149,-0.371095 1.49579,-1.842145 1.28173,-1.593622 -0.66074,0.782846 -1.46808,1.834058 -2.03192,2.509433 1.01817,-1.198927 2.05069,-2.54862 3.00001,-3.716038 -0.70691,0.823271 -1.52606,1.947032 -2.12581,2.661221 0.8945,-1.044122 1.88422,-2.4127 2.67454,-3.331884 -1.35432,1.592789 -2.66992,3.381277 -3.97375,4.914564 0.6953,-0.841886 2.59018,-3.209803 2.69453,-3.331852 -0.4795,0.610244 -1.66509,2.01595 -1.81342,2.266821 0.74802,-0.918329 2.37136,-2.953241 2.68406,-3.357917 -0.8226,1.027914 -2.12224,2.667258 -2.73014,3.389824 0.72614,-0.859153 1.78399,-2.194717 2.30238,-2.852119 -1.08706,1.302039 -2.1961,2.728146 -3.22147,4.003308 1.11589,-1.342522 2.41368,-3.016365 3.41205,-4.232007 -0.56911,0.668435 -1.90012,2.376868 -2.08423,2.587229 0.58538,-0.651546 1.95929,-2.491521 2.14465,-2.654244 -0.93483,1.145388 -2.08658,2.574796 -2.89895,3.580922 0.96281,-1.170507 2.37815,-2.943642 3.0831,-3.82351 -0.93909,1.154543 -2.24097,2.809359 -2.99366,3.703011 0.55547,-0.657436 1.70672,-2.12694 1.96818,-2.427681 -0.44441,0.526962 -1.28404,1.608434 -1.5139,1.877028 0.88177,-1.086775 2.04108,-2.488037 2.74011,-3.402255 -0.92204,1.166194 -2.10019,2.567133 -2.88902,3.610904 0.69746,-0.908203 1.6863,-2.071566 2.26812,-2.849144 -1.04732,1.282708 -2.22138,2.783955 -3.19338,3.963447 1.09946,-1.329494 2.55569,-3.166014 3.42144,-4.245617 -0.65031,0.814711 -1.70171,2.110092 -2.15815,2.702777 0.86649,-1.060991 1.9303,-2.403442 2.67938,-3.334318 -1.3182,1.592211 -2.8139,3.483258 -3.98768,4.948484 0.75871,-0.954138 2.75572,-3.404002 2.88638,-3.602923 -0.35539,0.490286 -1.91675,2.356608 -1.71834,2.158093 0.58848,-0.739908 2.0387,-2.518496 2.2178,-2.760808 -0.5878,0.750242 -2.38909,2.938794 -2.35796,2.930239 0.48568,-0.612661 1.69317,-2.083926 1.8128,-2.263808 -0.35899,0.442987 -1.61948,2.051369 -1.60058,1.984934 0.41716,-0.499395 1.36709,-1.667474 1.52533,-1.883819 -0.18833,0.244914 -1.84823,2.274335 -1.26091,1.572484 0.48462,-0.596699 1.84705,-2.259232 1.86825,-2.33399 -0.75781,0.954454 -2.31467,2.867071 -2.68083,3.349746 0.86971,-1.102538 2.12735,-2.627497 2.79303,-3.498374 -0.99198,1.244995 -2.18033,2.724083 -3.06528,3.838368 1.07764,-1.339409 2.77166,-3.44632 3.53903,-4.412828 -1.20326,1.488074 -2.52482,3.138896 -3.65951,4.553544 0.89532,-1.122421 2.03753,-2.524307 2.81334,-3.501251 -0.4372,0.549324 -1.16724,1.470904 -1.47223,1.837879 0.31277,-0.380937 1.23941,-1.546705 0.4316,-0.542077 -0.45612,0.558962 -0.79225,0.995048 -0.1339,0.17096 0.36095,-0.441345 0.89795,-1.120021 0.2389,-0.292824 -0.54752,0.673426 -0.21622,0.252546 -0.24095,0.291126 -0.76153,0.961325 1.37269,-1.704208 0.4836,-0.591887 -0.35521,0.438895 -0.99631,1.233341 -0.2214,0.284493 0.52071,-0.650541 0.58751,-0.757903 0.006,-0.02765 -0.2728,0.326503 -1.66895,2.077498 -0.67982,0.845156 0.27148,-0.334903 1.29874,-1.609685 0.524,-0.637695 -0.43804,0.52852 0.81224,-1.00088 0.1248,-0.16323 -0.35144,0.413965 -0.96708,1.206204 -0.2468,0.30806 0.49851,-0.629272 -0.0907,0.113526 0.37807,-0.461143 0.4186,-0.520161 0.63843,-0.809746 0.0493,-0.0697 -0.29399,0.370913 -1.06067,1.315612 -0.3897,0.47171 0.92784,-1.124669 -0.61874,0.76146 -0.537,0.663744 0.2495,-0.277704 1.035,-1.27798 1.0435,-1.2787 -0.35484,0.432963 -0.89834,1.124053 -0.1819,0.230762 0.44341,-0.56002 0.61279,-0.780526 0.0372,-0.06186 -0.26418,0.336858 -1.26373,1.565016 -1.24145,1.544689 0.4132,-0.511852 1.71529,-2.119981 1.70646,-2.114684 -0.44088,0.555688 -1.31281,1.601155 -1.53163,1.913246 0.52177,-0.680343 1.59503,-1.941531 1.84161,-2.313411 -0.54888,0.7142 -1.85455,2.282499 -2.05128,2.566 0.4747,-0.602065 1.55992,-1.919531 1.74205,-2.186182 -0.51807,0.6731 -1.46399,1.820471 -1.78609,2.245994 0.5819,-0.744376 1.47035,-1.83584 1.91997,-2.392627 -0.17377,0.215209 -1.47903,1.842612 -0.8563,1.06274 0.39371,-0.474515 0.93692,-1.175183 0.2096,-0.265015 -0.25947,0.312971 -1.35781,1.675422 -1.23383,1.535473 0.40057,-0.483288 1.60312,-2.001157 1.63708,-2.031611 -0.2087,0.248554 -1.14387,1.428055 -1.0665,1.316569 0.23186,-0.286695 1.21669,-1.489633 0.46721,-0.576975 -0.61502,0.761234 0.57902,-0.714568 -0.06,0.07945 -0.45137,0.530709 -0.64423,0.799015 -0.0349,0.04938 0.41961,-0.51965 0.86725,-1.10112 0.1653,-0.218799 -0.36559,0.434144 -0.80348,1.027662 -0.1629,0.208118 0.41027,-0.493333 1.12784,-1.419972 0.27796,-0.356837 -0.21188,0.258982 -1.68703,2.103107 -0.78986,0.996354 0.27612,-0.3403 1.42414,-1.76202 1.28946,-1.621335 -0.25301,0.358702 -1.32356,1.622068 -1.24981,1.580364 0.4435,-0.575033 1.4735,-1.807587 1.63772,-2.063371 -0.7271,0.910389 -1.88117,2.364633 -2.41887,3.008814 0.53564,-0.631824 1.96074,-2.438485 2.06169,-2.548641 -0.30701,0.383045 -1.14604,1.413921 -1.2134,1.506776 0.27993,-0.354478 1.22286,-1.499847 1.1414,-1.41746 -0.54043,0.682329 -1.32681,1.613165 -1.74031,2.158937 0.6747,-0.814538 1.71775,-2.129757 2.183,-2.710563 -0.61013,0.743866 -1.6609,2.066707 -2.03181,2.530684 0.34589,-0.426956 1.50584,-1.885411 1.46703,-1.830658 -0.20188,0.253636 -1.59427,1.97606 -0.7145,0.893589 0.16816,-0.215514 0.80262,-0.98211 0.24,-0.299475 -0.64281,0.789008 -0.28943,0.374556 0.1464,-0.17672 0.77163,-0.97021 -0.60048,0.738802 -0.7969,0.986502 -0.49954,0.617472 1.37132,-1.718727 0.4474,-0.55097 -0.83827,1.032583 0.87591,-1.073917 0.8754,-1.091563 -0.2729,0.355669 -1.38288,1.708689 -0.55196,0.6942 0.51733,-0.648451 -0.70909,0.85206 -0.871,1.070087 0.0619,-0.08758 1.11633,-1.365702 1.01875,-1.25933 -0.23943,0.292196 -1.43955,1.774576 -0.5754,0.716523 0.26372,-0.317282 1.4055,-1.74737 0.5582,-0.696702 -0.27643,0.334404 -1.41855,1.765259 -0.51598,0.639876 0.24397,-0.27837 1.45552,-1.817521 0.593,-0.739166 -0.42557,0.50858 -1.22881,1.535114 -1.48025,1.828873 0.47742,-0.580266 1.79381,-2.207396 1.87403,-2.318275 -0.21835,0.268924 -1.13236,1.427239 -1.0352,1.291551 0.34355,-0.42667 1.07198,-1.34071 0.27877,-0.349146 -0.32507,0.406266 -1.10289,1.361241 -0.304,0.383155 0.33763,-0.417873 0.87935,-1.104846 0.23021,-0.292129 -0.81601,1.009851 0.51402,-0.621669 0.70342,-0.866374 0.73299,-0.928316 -0.74481,0.908467 -0.88757,1.091576 -0.27176,0.325586 -1.38993,1.727133 -0.51377,0.640677 0.29319,-0.352194 1.57666,-1.959174 1.41659,-1.758842 -0.3466,0.411555 -1.06351,1.322823 -1.22555,1.521418 0.23809,-0.290344 1.55181,-1.921859 0.658,-0.821884 -0.38921,0.498094 -0.60888,0.764517 -0.0726,0.09806 0.78318,-0.977266 -0.55738,0.697864 0.0595,-0.07666 -0.33199,0.386908 -1.27156,1.587891 -0.4189,0.5185 0.28398,-0.350057 1.38994,-1.72297 0.4968,-0.609266 -0.52044,0.642581 -0.39958,0.484293 -0.0175,0.02174 0.40405,-0.502862 -1.03887,1.259229 -0.34274,0.41939 0.35298,-0.434417 0.76181,-0.953516 0.1415,-0.17325 -0.64984,0.809907 -0.33583,0.397823 0.1124,-0.13709 0.65771,-0.812927 -0.12424,0.153682 -0.16403,0.20044 0.27017,-0.338036 0.0412,-0.0529 0.0346,-0.0477 0.21957,-0.271012 -0.75731,0.939129 -0.0653,0.08571 0.32293,-0.408755 0.79698,-0.985207 0.1981,-0.24091 -0.65176,0.792359 0.0906,-0.121294 -0.0289,0.02976 -0.27922,0.356455 0.66036,-0.817874 -0.0165,0.01382 -0.36448,0.457063 -1.00371,1.246704 -0.217,0.280223 0.25611,-0.31481 1.48268,-1.851128 0.59025,-0.742735 -0.23817,0.303114 -1.45442,1.793176 -1.2022,1.502846 0.47643,-0.588473 1.71922,-2.130654 1.81767,-2.268075 -0.63264,0.78039 -1.54789,1.937431 -2.04662,2.536765 0.49338,-0.585676 1.57456,-1.94761 1.75811,-2.176142 -0.2956,0.360099 -1.3599,1.705166 -1.27167,1.580289 0.26828,-0.330245 1.70125,-2.106749 0.7322,-0.91222 -0.32359,0.406097 -1.29343,1.612727 -0.415,0.520215 0.28921,-0.347773 1.3968,-1.749756 0.52942,-0.654574 -0.34485,0.417029 -1.01602,1.269839 -0.3011,0.36864 0.54407,-0.658474 0.53401,-0.679909 0.008,-0.01426 -0.3183,0.40067 -1.21849,1.5158 -0.3752,0.472336 0.26733,-0.337233 1.22447,-1.517074 0.4344,-0.536331 -0.73121,0.895292 0.20172,-0.245883 0.3163,-0.39595 -0.19229,0.247792 -1.08456,1.328431 -0.39123,0.48326 0.77562,-0.969625 -0.16733,0.22008 -0.3546,0.42612 0.2558,-0.298857 1.28286,-1.573236 0.4948,-0.60712 -0.33968,0.422047 -0.93835,1.16681 -0.2325,0.29023 0.51756,-0.645363 0.42073,-0.513622 0.0274,-0.02936 0.11449,-0.165652 -0.77445,0.962407 -0.1099,0.133977 0.32011,-0.377812 1.24124,-1.554851 0.4059,-0.50884 -0.28703,0.358829 -1.18247,1.467916 -0.3919,0.493035 0.37012,-0.448878 1.06086,-1.32919 0.2797,-0.352278 -0.33376,0.414451 -0.96709,1.200619 -0.2525,0.316172 0.32379,-0.398616 0.8606,-1.065584 0.2179,-0.27259 -0.53237,0.657244 -0.40267,0.497697 0.044,-0.05104 0.37696,-0.480908 -1.02129,1.266163 -0.2505,0.31002 0.33385,-0.407498 1.10478,-1.382315 0.3093,-0.390397 -0.23136,0.283987 -1.52046,1.883901 -0.63577,0.795912 0.30682,-0.369832 1.47065,-1.825677 1.37624,-1.715613 -0.49983,0.6218 -1.83121,2.25959 -1.92381,2.392037 0.61906,-0.756059 1.54185,-1.90287 1.98929,-2.47781 -0.57133,0.709958 -1.69762,2.113555 -2.00261,2.490493 0.58015,-0.701622 1.59767,-1.977105 1.94836,-2.416379 -0.4446,0.54843 -1.47179,1.826589 -1.62463,2.017956 0.38167,-0.465336 1.40709,-1.74046 1.46736,-1.82102 -0.48179,0.59789 -1.41995,1.753293 -1.67834,2.077521 0.49877,-0.602454 1.33613,-1.64749 1.64991,-2.047126 -0.52398,0.642342 -1.24397,1.550464 -1.66442,2.064651 0.34435,-0.40635 1.37457,-1.71873 1.38656,-1.711658 -0.19763,0.256297 -0.75276,0.924488 -0.32694,0.410526 -0.33283,0.399125 -0.0194,0.0322 -0.22772,0.27257 -0.93292,1.173408 1.19003,-1.463933 0.3336,-0.40679 -0.33738,0.41962 -1.06692,1.328565 -0.2831,0.35813 0.35584,-0.437572 0.87808,-1.10701 0.1939,-0.246278 -0.26502,0.329674 -1.16571,1.444416 -0.3953,0.486712 0.37263,-0.455362 0.82821,-1.021337 0.1779,-0.21892 -0.63967,0.785229 -0.29652,0.38293 0.1364,-0.158446 0.395,-0.472714 1.12404,-1.424854 0.2813,-0.36109 -0.22152,0.263662 -1.30419,1.62843 -1.12668,1.406575 0.55577,-0.679865 1.33571,-1.664024 1.76596,-2.20279 -0.55312,0.675802 -1.71205,2.148892 -1.97431,2.447563 0.47299,-0.572463 1.27611,-1.582485 1.58049,-1.952318 -0.21841,0.265175 -1.1627,1.442744 -1.0022,1.245437 0.30417,-0.366156 1.49538,-1.861615 0.5479,-0.687975 -0.30793,0.385669 -1.31259,1.63498 -0.4184,0.527243 0.18219,-0.217196 1.58065,-1.964717 0.88916,-1.112172 -0.3485,0.449442 -1.27296,1.574032 -1.37054,1.704539 0.30786,-0.367885 1.40044,-1.736132 1.32541,-1.641874 -0.23938,0.285519 -1.18547,1.481616 -1.0982,1.359952 0.27377,-0.330112 1.32802,-1.642162 0.4872,-0.60567 -0.32516,0.41034 -0.87205,1.080399 -0.2056,0.25992 0.2475,-0.292284 1.17613,-1.449017 1.128,-1.399984 -0.40574,0.492697 -1.42865,1.774777 -1.53011,1.902629 0.34831,-0.430895 1.0692,-1.319801 1.22991,-1.53807 -0.42501,0.530852 -1.23373,1.533504 -1.47335,1.836911 0.41481,-0.509412 1.44115,-1.789107 1.56164,-1.939146 -0.33566,0.416105 -1.21015,1.50204 -1.2856,1.596844 0.36197,-0.437857 1.25105,-1.550208 1.3387,-1.668036 -0.29522,0.375581 -1.1822,1.473405 -1.2089,1.507289 0.27498,-0.345819 1.33308,-1.654865 0.4825,-0.598335 -0.73307,0.904143 -0.0133,0.01851 0.24111,-0.30259 -0.30015,0.374101 -1.0585,1.309246 -0.2945,0.37568 0.31405,-0.3878 1.19253,-1.495232 0.3783,-0.4755 -0.23858,0.285989 -1.64181,2.030644 -0.71289,0.882613 0.27707,-0.342099 1.40338,-1.743518 0.5134,-0.640591 -0.32243,0.407399 -0.9423,1.166013 -0.2407,0.30825 0.33252,-0.415821 1.10011,-1.368381 0.309,-0.393273 -0.34724,0.430786 -1.20374,1.491304 -0.3515,0.446188 0.29709,-0.364848 1.20706,-1.517079 0.403,-0.505704 -0.28343,0.337525 -1.48819,1.856437 -0.58159,0.71706 0.27109,-0.317401 1.32566,-1.654425 0.49108,-0.600091 -0.3348,0.397181 -1.01998,1.270178 -0.2769,0.34147 0.28194,-0.336054 1.12632,-1.414005 0.3519,-0.443444 -0.26311,0.325644 -1.33655,1.665145 -0.4852,0.607365 0.28241,-0.35607 1.00672,-1.24892 0.2983,-0.374201 -0.83329,1.032903 0.69626,-0.85561 -0.0131,0.01662 -0.57516,0.714876 0.39203,-0.485816 -0.16934,0.21161 -0.49179,0.607715 1.0484,-1.290984 0.2315,-0.28431 -0.39627,0.488408 -0.6204,0.766929 -0.0876,0.104897 0.4595,-0.569502 -0.14329,0.188294 0.0132,-0.01661 -0.46455,0.566882 -0.46546,0.588264 0.0275,-0.02461 0.47759,-0.590685 0.57237,-0.724656 0.0286,-0.04197 -0.31446,0.387589 -0.93556,1.156146 -0.2379,0.29922 0.28452,-0.35501 1.0709,-1.329696 0.3307,-0.41732 -0.31785,0.393591 -0.98098,1.212339 -0.26314,0.33149 0.31825,-0.390098 0.81449,-1.015891 0.1892,-0.23726 -0.35993,0.441026 -0.90309,1.122975 -0.20284,0.24817 0.36712,-0.447184 0.82736,-1.025401 0.17883,-0.22103 -0.53756,0.673766 -0.28442,0.345582 -0.0352,0.05037 -0.58812,0.719762 0.66348,-0.819368 -0.0475,0.06008 -0.553,0.675841 0.74308,-0.918147 -0.0194,0.0229 -0.51864,0.638106 0.62905,-0.786176 -0.0327,0.0375 -0.76658,0.94392 0.32962,-0.404337 0.3005,-0.37918 -0.26853,0.34062 -0.87481,1.086437 -0.2431,0.30563 0.71289,-0.876501 -0.1881,0.237764 -0.19472,0.24164 0.35451,-0.429836 0.80474,-1.000204 0.16576,-0.210347 -0.75343,0.938521 0.33572,-0.412128 0.2916,-0.35707 -0.31768,0.392116 -0.91445,1.13468 -0.2418,0.30269 0.84849,-1.058752 -1.08915,1.337386 -0.1851,0.229276 0.3328,-0.402754 1.06454,-1.332759 0.3013,-0.3763 -0.41339,0.508021 -0.64608,0.805925 -0.0901,0.11297 0.85928,-1.067503 -0.40492,0.4958 -0.6428,0.79069 -0.0102,0.01287 1.05755,-1.295044 1.1449,-1.415943 -0.22335,0.272519 -1.18269,1.464801 -1.0409,1.292095 0.23826,-0.292448 1.45835,-1.807039 0.60922,-0.756979 -0.348,0.430566 -0.67665,0.839655 -0.1364,0.17003 0.65088,-0.803637 -0.0146,0.01971 -0.1668,0.204429 0.55764,-0.687118 -0.01,0.01153 0.16267,-0.198292 0.0129,-0.01456 -0.23479,0.283134 0.127,-0.15669 0.14596,-0.179641 -0.26289,0.322443 -0.11001,0.136092 -0.16941,0.198875 -0.39784,0.494037 0.0282,-0.03522 0.87712,-1.086503 -0.95338,1.177839 -0.0753,0.0935 0.35572,-0.429984 0.6653,-0.82504 0.1138,-0.140125 -0.44007,0.537437 -0.66498,0.825191 -0.0762,0.09728 0.41071,-0.50897 0.69245,-0.866665 0.099,-0.12726 -0.37422,0.460976 -0.76474,0.950749 -0.1475,0.18545 0.45707,-0.569653 0.57641,-0.714424 0.0435,-0.05584 -0.61751,0.759888 -0.25445,0.318569 0.1242,-0.15635 0.35682,-0.435169 -0.78609,0.974849 -0.0679,0.08696 0.60985,-0.749015 -0.1445,0.177955 -0.0563,0.07251 0.0248,-0.04266 -0.23225,0.295311 0.1206,-0.152098 -0.29632,0.359482 -0.72656,0.903275 -0.12961,0.16849 0.3831,-0.47395 0.72067,-0.902712 0.1197,-0.15514 -0.3878,0.482188 -0.68849,0.846629 -0.1095,0.13958 0.42547,-0.528319 0.58364,-0.725737 0.0583,-0.08035 -0.5903,0.740536 -0.22149,0.273166 0.11737,-0.13854 -0.35671,0.438235 -0.065,0.07786 -0.30449,0.375169 0.31932,-0.395458 0.76007,-0.939146 0.15814,-0.198 -0.66658,0.827859 0.10107,-0.124098 0.16783,-0.204572 -0.3484,0.425802 -0.61881,0.768828 -0.0935,0.118079 0.73393,-0.918162 -1.20471,1.483647 -0.211,0.26024 0.27713,-0.341018 1.05702,-1.319641 0.3348,-0.41779 -0.26142,0.318546 -1.18029,1.458537 -0.4063,0.50415 0.31835,-0.387307 0.95029,-1.184983 0.2519,-0.3142 -0.36074,0.440395 -0.75636,0.934181 -0.1496,0.18664 0.3645,-0.452805 0.86055,-1.064769 0.19,-0.24118 -0.39426,0.49846 -0.70644,0.870511 -0.1144,0.14784 0.62493,-0.775569 0.24135,-0.300211 -0.1491,0.17593 -0.67877,0.849627 1.08101,-1.330292 0.16616,-0.19869 -0.7637,0.942607 0.35485,-0.440561 0.24938,-0.30704 -0.30181,0.368079 -0.96559,1.189886 -0.275,0.33918 0.60986,-0.75571 -0.0676,0.08249 -0.10746,0.132 0.48303,-0.590532 0.34893,-0.433887 -0.0598,0.07462 -0.11786,0.150824 0.85115,-1.057685 0.15973,-0.19701 -0.86123,1.063436 0.42731,-0.52164 0.4783,-0.59409 -0.27728,0.33954 -1.41227,1.750697 -0.5347,0.665592 0.43328,-0.541298 0.62066,-0.76645 0.0794,-0.09748 -0.76296,0.941816 0.78637,-0.975699 0.0223,-0.028 -0.84215,1.042672 0.82503,-1.021822 0.0753,-0.09144 -0.52827,0.646502 -0.32866,0.403884 0.0506,-0.06994 -0.20709,0.261851 -0.6684,0.827015 -0.1152,0.14603 0.70507,-0.865129 -0.20737,0.248339 -0.1987,0.24371 0.50732,-0.626871 0.24531,-0.306305 -0.0216,0.028 0.34616,-0.423772 0.68966,-0.855442 0.1313,-0.16291 -0.50104,0.61611 0.64791,-0.800964 -0.0224,0.02802 -0.37925,0.468532 0.57851,-0.712652 0.01,-0.01048 0.0859,-0.106664 0.54669,-0.670913 0.063,-0.07866 -0.49738,0.611463 0.24063,-0.291228 -0.0155,0.01995 -0.005,4.23e-4 0.21837,-0.270977 -0.1078,0.131817 0.18643,-0.226786 0.51403,-0.634299 0.1211,-0.15133"
       clip-path="url(#clipPath3)"
       style="fill:none;stroke:#000000" />
    <rect
       style="fill:none;stroke:#000000;stroke-width:1"
       id="rect93"
       height="151"
       width="140"
       clip-path="url(#clipPath1)"
       y="8"
       x="48" />
  </g>
  <text
     sodipodi:linespacing="100%"
     xml:space="preserve"
     style="font-size:13.3440218px;font-style:normal;font-variant:normal;font-weight:normal;font-stretch:normal;text-align:center;line-height:100%;letter-spacing:0.14678429px;word-spacing:0px;writing-mode:lr-tb;text-anchor:middle;fill:#000000;fill-opacity:1;stroke:none;font-family:IPAexGothic;-inkscape-font-specification:IPAexGothic"
     x="-81.580681"
     y="13.575035"
     id="text924"
     transform="matrix(0,-0.97662736,1.023932,0,0,0)"><tspan
       sodipodi:role="line"
       id="tspan922"
       x="-81.507286"
       y="13.575035"
       style="font-size:13.3440218px;font-style:normal;font-variant:normal;font-weight:normal;font-stretch:normal;text-align:center;line-height:100%;writing-mode:lr-tb;text-anchor:middle;font-family:IPAexGothic;-inkscape-font-specification:IPAexGothic">Column base moment</tspan><tspan
       sodipodi:role="line"
       x="-81.507286"
       y="26.919056"
       id="tspan3169"
       style="font-size:13.3440218px;font-style:normal;font-variant:normal;font-weight:normal;font-stretch:normal;text-align:center;line-height:100%;writing-mode:lr-tb;text-anchor:middle;font-family:IPAexGothic;-inkscape-font-specification:IPAexGothic"><tspan
   style="font-style:italic;font-family:Times New Roman;-inkscape-font-specification:Times New Roman"
   id="tspan3171">M<tspan
   style="font-size:8.67373657px;font-style:italic;baseline-shift:sub"
   id="tspan3173">B</tspan></tspan> [kN]</tspan></text>
  <text
     sodipodi:linespacing="121%"
     xml:space="preserve"
     style="font-size:14px;font-style:normal;font-variant:normal;font-weight:normal;font-stretch:normal;text-align:start;line-height:121.00000381%;letter-spacing:0.14678429px;word-spacing:0px;writing-mode:lr-tb;text-anchor:start;fill:#000000;fill-opacity:1;stroke:none;font-family:IPAexGothic;-inkscape-font-specification:IPAexGothic"
     x="56.375004"
     y="184.82422"
     id="text924-6"
     transform="scale(0.97662736,1.023932)"><tspan
       sodipodi:role="line"
       id="tspan922-2"
       x="56.375004"
       y="184.82422">Story shear force <tspan
   style="font-size:9.10012817px;font-style:italic;baseline-shift:sub;font-family:Times New Roman;-inkscape-font-specification:Times New Roman"
   id="tspan3150">ε</tspan><tspan
   style="font-style:italic;font-family:Times New Roman;-inkscape-font-specification:Times New Roman"
   id="tspan3154">V</tspan><tspan
   style="font-size:9.10012817px;font-style:italic;baseline-shift:sub;font-family:Times New Roman;-inkscape-font-specification:Times New Roman"
   id="tspan3152">B</tspan> [kN]</tspan></text>
</svg>
