<?xml version="1.0" encoding="UTF-8" standalone="no"?>
<svg
   xmlns:dc="http://purl.org/dc/elements/1.1/"
   xmlns:cc="http://creativecommons.org/ns#"
   xmlns:rdf="http://www.w3.org/1999/02/22-rdf-syntax-ns#"
   xmlns:svg="http://www.w3.org/2000/svg"
   xmlns="http://www.w3.org/2000/svg"
   xmlns:sodipodi="http://sodipodi.sourceforge.net/DTD/sodipodi-0.dtd"
   xmlns:inkscape="http://www.inkscape.org/namespaces/inkscape"
   width="498.84225"
   contentScriptType="text/ecmascript"
   preserveAspectRatio="xMidYMid meet"
   font-size="12px"
   stroke-miterlimit="10"
   zoomAndPan="magnify"
   version="1.0"
   contentStyleType="text/css"
   font-style="normal"
   height="206.38727"
   font-weight="normal"
   id="svg313"
   sodipodi:docname="Fig05_cj35A300_b.svg"
   inkscape:version="0.92.5 (2060ec1f9f, 2020-04-08)"
   style="font-style:normal;font-weight:normal;font-size:12px;font-family:Dialog;color-interpolation:auto;fill:#000000;fill-opacity:1;stroke:#000000;stroke-width:1;stroke-linecap:square;stroke-linejoin:miter;stroke-miterlimit:10;stroke-dasharray:none;stroke-dashoffset:0;stroke-opacity:1;color-rendering:auto;image-rendering:auto;shape-rendering:auto;text-rendering:auto">
  <metadata
     id="metadata317">
    <rdf:RDF>
      <cc:Work
         rdf:about="">
        <dc:format>image/svg+xml</dc:format>
        <dc:type
           rdf:resource="http://purl.org/dc/dcmitype/StillImage" />
        <dc:title></dc:title>
      </cc:Work>
    </rdf:RDF>
  </metadata>
  <sodipodi:namedview
     pagecolor="#ffffff"
     bordercolor="#666666"
     borderopacity="1"
     objecttolerance="10"
     gridtolerance="10"
     guidetolerance="10"
     inkscape:pageopacity="0"
     inkscape:pageshadow="2"
     inkscape:window-width="1920"
     inkscape:window-height="1028"
     id="namedview315"
     showgrid="false"
     inkscape:zoom="2.1948102"
     inkscape:cx="273.84106"
     inkscape:cy="97.212507"
     inkscape:window-x="1920"
     inkscape:window-y="0"
     inkscape:window-maximized="1"
     inkscape:current-layer="g311"
     fit-margin-top="3"
     fit-margin-left="3"
     fit-margin-right="3"
     fit-margin-bottom="3" />
  <!--jun.util.prepareGraphics2D-->
  <defs
     id="genericDefs" />
  <g
     id="g311"
     transform="translate(7.3422553,0.09052734)">
    <defs
       id="defs1">
      <clipPath
         clipPathUnits="userSpaceOnUse"
         id="clipPath1">
        <path
           d="M 0,0 H 500 V 200 H 0 Z"
           id="path3"
           inkscape:connector-curvature="0" />
      </clipPath>
      <clipPath
         clipPathUnits="userSpaceOnUse"
         id="clipPath2">
        <path
           d="M 101,66 V 566 H -99 V 66 Z"
           id="path6"
           inkscape:connector-curvature="0" />
      </clipPath>
      <clipPath
         clipPathUnits="userSpaceOnUse"
         id="clipPath3">
        <path
           d="M 50,8 V 159 H 488 V 8 Z"
           id="path9"
           inkscape:connector-curvature="0" />
      </clipPath>
    </defs>
    <line
       style="font-size:10px;font-family:sans-serif;fill:none;stroke:#808080;stroke-width:0.5;text-rendering:optimizeLegibility"
       id="line19"
       y2="159"
       y1="159"
       x2="488"
       x1="50"
       clip-path="url(#clipPath1)" />
    <line
       style="font-size:10px;font-family:sans-serif;fill:none;stroke:#808080;stroke-width:0.5;text-rendering:optimizeLegibility"
       id="line23"
       y2="159"
       y1="161"
       x2="50"
       x1="50"
       clip-path="url(#clipPath1)" />
    <text
       style="font-size:10px;font-family:sans-serif;fill:#000000;stroke:none;stroke-width:0.32467532;text-rendering:optimizeLegibility"
       transform="matrix(1.54,0,0,1.54,-91.270772,-89.329873)"
       id="text29"
       xml:space="preserve"
       clip-path="url(#clipPath1)"
       y="172.79883"
       x="146.78572">震度1</text>
    <line
       style="font-size:10px;font-family:sans-serif;fill:none;stroke:#808080;stroke-width:0.5;text-rendering:optimizeLegibility"
       id="line31"
       y2="159"
       y1="161"
       x2="154.28572"
       x1="154.28572"
       clip-path="url(#clipPath1)" />
    <line
       style="font-size:10px;font-family:sans-serif;fill:none;stroke:#808080;stroke-width:0.5;text-rendering:optimizeLegibility"
       id="line39"
       y2="159"
       y1="161"
       x2="258.57144"
       x1="258.57144"
       clip-path="url(#clipPath1)" />
    <line
       style="font-size:10px;font-family:sans-serif;fill:none;stroke:#808080;stroke-width:0.5;text-rendering:optimizeLegibility"
       id="line47"
       y2="159"
       y1="161"
       x2="362.85715"
       x1="362.85715"
       clip-path="url(#clipPath1)" />
    <line
       style="font-size:10px;font-family:sans-serif;fill:none;stroke:#808080;stroke-width:0.5;text-rendering:optimizeLegibility"
       id="line55"
       y2="159"
       y1="161"
       x2="467.14285"
       x1="467.14285"
       clip-path="url(#clipPath1)" />
    <text
       style="font-size:12px;font-family:sans-serif;fill:#000000;stroke:none;stroke-width:0.29757437;text-rendering:optimizeLegibility"
       transform="matrix(1.6802523,0,0,1.6802523,-182.90549,-113.5424)"
       id="text57"
       xml:space="preserve"
       clip-path="url(#clipPath1)"
       y="187.55859"
       font-size="12px"
       x="199">最寄り震度計測点での震度</text>
    <line
       style="font-size:10px;font-family:sans-serif;fill:none;stroke:#808080;stroke-width:0.5;text-rendering:optimizeLegibility"
       id="line59"
       y2="159"
       y1="8"
       x2="50"
       x1="50"
       clip-path="url(#clipPath1)" />
    <text
       style="font-size:10px;font-family:sans-serif;fill:#000000;stroke:none;stroke-width:0.32467532;text-rendering:optimizeLegibility"
       transform="matrix(1.54,0,0,1.54,-22.81176,-86.201192)"
       id="text61"
       xml:space="preserve"
       clip-path="url(#clipPath1)"
       y="163.29883"
       x="29">0.0</text>
    <line
       style="font-size:10px;font-family:sans-serif;fill:none;stroke:#808080;stroke-width:0.5;text-rendering:optimizeLegibility"
       id="line63"
       y2="159"
       y1="159"
       x2="50"
       x1="48"
       clip-path="url(#clipPath1)" />
    <text
       style="font-size:10px;font-family:sans-serif;fill:#000000;stroke:none;stroke-width:0.32467532;text-rendering:optimizeLegibility"
       transform="matrix(1.54,0,0,1.54,-22.788029,-78.047188)"
       id="text65"
       xml:space="preserve"
       clip-path="url(#clipPath1)"
       y="148.19882"
       x="29">0.5</text>
    <line
       style="font-size:10px;font-family:sans-serif;fill:none;stroke:#808080;stroke-width:0.5;text-rendering:optimizeLegibility"
       id="line67"
       y2="143.89999"
       y1="143.89999"
       x2="50"
       x1="48"
       clip-path="url(#clipPath1)" />
    <text
       style="font-size:10px;font-family:sans-serif;fill:#000000;stroke:none;stroke-width:0.32467532;text-rendering:optimizeLegibility"
       transform="matrix(1.54,0,0,1.54,-22.956779,-69.891875)"
       id="text69"
       xml:space="preserve"
       clip-path="url(#clipPath1)"
       y="133.09883"
       x="29">1.0</text>
    <line
       style="font-size:10px;font-family:sans-serif;fill:none;stroke:#808080;stroke-width:0.5;text-rendering:optimizeLegibility"
       id="line71"
       y2="128.8"
       y1="128.8"
       x2="50"
       x1="48"
       clip-path="url(#clipPath1)" />
    <text
       style="font-size:10px;font-family:sans-serif;fill:#000000;stroke:none;stroke-width:0.32467532;text-rendering:optimizeLegibility"
       transform="matrix(1.54,0,0,1.54,-22.933049,-61.737875)"
       id="text73"
       xml:space="preserve"
       clip-path="url(#clipPath1)"
       y="117.99883"
       x="29">1.5</text>
    <line
       style="font-size:10px;font-family:sans-serif;fill:none;stroke:#808080;stroke-width:0.5;text-rendering:optimizeLegibility"
       id="line75"
       y2="113.7"
       y1="113.7"
       x2="50"
       x1="48"
       clip-path="url(#clipPath1)" />
    <text
       style="font-size:10px;font-family:sans-serif;fill:#000000;stroke:none;stroke-width:0.32467532;text-rendering:optimizeLegibility"
       transform="matrix(1.54,0,0,1.54,-22.856584,-53.585191)"
       id="text77"
       xml:space="preserve"
       clip-path="url(#clipPath1)"
       y="102.89883"
       x="29">2.0</text>
    <line
       style="font-size:10px;font-family:sans-serif;fill:none;stroke:#808080;stroke-width:0.5;text-rendering:optimizeLegibility"
       id="line79"
       y2="98.599998"
       y1="98.599998"
       x2="50"
       x1="48"
       clip-path="url(#clipPath1)" />
    <text
       style="font-size:10px;font-family:sans-serif;fill:#000000;stroke:none;stroke-width:0.32467532;text-rendering:optimizeLegibility"
       transform="matrix(1.54,0,0,1.54,-22.832854,-45.431191)"
       id="text81"
       xml:space="preserve"
       clip-path="url(#clipPath1)"
       y="87.798828"
       x="29">2.5</text>
    <line
       style="font-size:10px;font-family:sans-serif;fill:none;stroke:#808080;stroke-width:0.5;text-rendering:optimizeLegibility"
       id="line83"
       y2="83.5"
       y1="83.5"
       x2="50"
       x1="48"
       clip-path="url(#clipPath1)" />
    <text
       style="font-size:10px;font-family:sans-serif;fill:#000000;stroke:none;stroke-width:0.32467532;text-rendering:optimizeLegibility"
       transform="matrix(1.54,0,0,1.54,-22.789348,-37.277192)"
       id="text85"
       xml:space="preserve"
       clip-path="url(#clipPath1)"
       y="72.69883"
       x="29">3.0</text>
    <line
       style="font-size:10px;font-family:sans-serif;fill:none;stroke:#808080;stroke-width:0.5;text-rendering:optimizeLegibility"
       id="line87"
       y2="68.400002"
       y1="68.400002"
       x2="50"
       x1="48"
       clip-path="url(#clipPath1)" />
    <text
       style="font-size:10px;font-family:sans-serif;fill:#000000;stroke:none;stroke-width:0.32467532;text-rendering:optimizeLegibility"
       transform="matrix(1.54,0,0,1.54,-22.765617,-29.123191)"
       id="text89"
       xml:space="preserve"
       clip-path="url(#clipPath1)"
       y="57.598827"
       x="29">3.5</text>
    <line
       style="font-size:10px;font-family:sans-serif;fill:none;stroke:#808080;stroke-width:0.5;text-rendering:optimizeLegibility"
       id="line91"
       y2="53.299999"
       y1="53.299999"
       x2="50"
       x1="48"
       clip-path="url(#clipPath1)" />
    <text
       style="font-size:10px;font-family:sans-serif;fill:#000000;stroke:none;stroke-width:0.32467532;text-rendering:optimizeLegibility"
       transform="matrix(1.54,0,0,1.54,-22.751115,-20.969192)"
       id="text93"
       xml:space="preserve"
       clip-path="url(#clipPath1)"
       y="42.498829"
       x="29">4.0</text>
    <line
       style="font-size:10px;font-family:sans-serif;fill:none;stroke:#808080;stroke-width:0.5;text-rendering:optimizeLegibility"
       id="line95"
       y2="38.200001"
       y1="38.200001"
       x2="50"
       x1="48"
       clip-path="url(#clipPath1)" />
    <text
       style="font-size:10px;font-family:sans-serif;fill:#000000;stroke:none;stroke-width:0.32467532;text-rendering:optimizeLegibility"
       transform="matrix(1.54,0,0,1.54,-22.727385,-12.834967)"
       id="text97"
       xml:space="preserve"
       clip-path="url(#clipPath1)"
       y="27.398829"
       x="29">4.5</text>
    <line
       style="font-size:10px;font-family:sans-serif;fill:none;stroke:#808080;stroke-width:0.5;text-rendering:optimizeLegibility"
       id="line99"
       y2="23.1"
       y1="23.1"
       x2="50"
       x1="48"
       clip-path="url(#clipPath1)" />
    <text
       style="font-size:10px;font-family:sans-serif;fill:#000000;stroke:none;stroke-width:0.32467532;text-rendering:optimizeLegibility"
       transform="matrix(1.54,0,0,1.54,-22.865813,-4.6611914)"
       id="text101"
       xml:space="preserve"
       clip-path="url(#clipPath1)"
       y="12.298828"
       x="29">5.0</text>
    <line
       style="font-size:10px;font-family:sans-serif;fill:none;stroke:#808080;stroke-width:0.5;text-rendering:optimizeLegibility"
       id="line103"
       y2="8"
       y1="8"
       x2="50"
       x1="48"
       clip-path="url(#clipPath1)" />
    <path
       style="font-size:10px;font-family:sans-serif;fill:#000000;stroke:none;stroke-width:0.29632306;text-rendering:optimizeLegibility"
       inkscape:connector-curvature="0"
       id="path105"
       transform="matrix(0,-1.6873476,1.6873476,0,-136.95064,112.89971)"
       clip-path="url(#clipPath2)"
       d="m -15.890625,83.511719 -0.04687,0.109375 q -0.546875,1.890625 -1.515625,3.46875 l -0.53125,-0.875 q 1.375,-1.9375 1.953125,-4.296875 h -1.703125 v -0.78125 h 1.84375 v -2.515625 h 0.8125 v 2.515625 h 1.6875 v 0.78125 h -1.6875 v 1.15625 q 1.1875,0.984375 1.875,1.78125 l -0.515625,0.859375 q -0.59375,-0.84375 -1.359375,-1.703125 v 5.390625 h -0.8125 z M -7.625,79.402344 v 9.78125 h -0.8125 v -0.84375 h -3.671875 v 0.84375 h -0.796875 v -9.78125 z m -4.484375,0.734375 v 1.953125 H -8.4375 v -1.953125 z m 0,2.671875 v 1.953125 H -8.4375 v -1.953125 z m 0,2.671875 v 2.125 H -8.4375 v -2.125 z M -0.09375,83.058594 H 3.75 v 6.34375 H 2.859375 v -0.609375 h -7.8125 v -0.78125 h 7.8125 v -1.78125 h -7.53125 v -0.765625 h 7.53125 V 83.824219 H -4.96875 v -0.765625 h 3.984375 v -4.15625 h 0.890625 z m -3.1875,-0.53125 q -0.640625,-1.40625 -1.390625,-2.421875 l 0.78125,-0.4375 q 0.765625,0.96875 1.46875,2.421875 z m 4.453125,-0.375 Q 2,81.027344 2.71875,79.480469 l 0.890625,0.40625 q -0.75,1.484375 -1.640625,2.6875 z m 9.671875,3.25 v 3.9375 h -0.8125 V 88.792969 H 7.546875 v 0.609375 H 6.71875 v -4 z m -3.296875,0.71875 v 1.953125 h 2.484375 v -1.953125 z m 6.0625,-3.609375 v -3.65625 h 0.859375 v 3.65625 H 16.875 v 0.796875 h -2.40625 v 6.09375 h -0.859375 v -6.09375 h -2.375 V 82.511719 Z M 6.96875,79.105469 h 3.640625 v 0.734375 H 6.96875 Z m -0.75,1.5625 h 5.1875 v 0.765625 h -5.1875 z m 0.75,1.59375 h 3.640625 v 0.734375 H 6.96875 Z m 0,1.5625 h 3.640625 v 0.75 H 6.96875 Z m 17.765625,-4.421875 v 7.125 h -3.375 v -7.125 z m -2.625,0.734375 v 1.375 h 1.875 v -1.375 z m 0,2.078125 v 1.359375 h 1.875 v -1.359375 z m 0,2.0625 v 1.515625 h 1.875 V 84.277344 Z M 20.15625,81.261719 q -0.78125,-1 -1.609375,-1.640625 l 0.5625,-0.625 q 0.84375,0.65625 1.640625,1.5625 z m -0.359375,2.8125 q -0.765625,-0.90625 -1.6875,-1.625 l 0.5625,-0.625 q 0.96875,0.671875 1.6875,1.53125 z m -1.59375,4.625 q 1.015625,-1.640625 1.734375,-3.71875 l 0.6875,0.546875 q -0.71875,2.140625 -1.703125,3.828125 z m 6.453125,0.34375 Q 24.015625,87.964844 23.359375,87.214844 L 24,86.746094 q 0.6875,0.71875 1.328125,1.6875 z m 1.046875,-8.953125 h 0.8125 v 6.671875 h -0.8125 z m -5.125,8.671875 Q 21.4375,87.996094 22.09375,86.714844 l 0.703125,0.40625 q -0.75,1.453125 -1.65625,2.359375 z m 7.078125,-9.734375 h 0.8125 v 9.328125 q 0,0.9375 -1.03125,0.9375 -0.71875,0 -1.421875,-0.0625 l -0.1875,-0.875 q 0.90625,0.109375 1.453125,0.109375 0.375,0 0.375,-0.359375 z m 7.390625,1.0625 v -0.546875 h -3.5625 v -0.640625 h 8.03125 v 0.640625 H 35.875 v 0.546875 H 40.5 v 2.171875 h -0.84375 v -1.53125 H 35.875 v 2.40625 h -0.828125 v -2.40625 h -3.71875 v 1.53125 h -0.84375 v -2.171875 z m 3.296875,7.921875 q 0.875,0.4375 2.453125,0.6875 l -0.46875,0.71875 Q 37.09375,88.792969 35.625,86.558594 h -1.5 v 1.890625 q 1.328125,-0.203125 2.625,-0.46875 l 0.0625,0.640625 q -2.046875,0.484375 -4.65625,0.859375 l -0.265625,-0.75 q 0.1875,-0.01563 0.671875,-0.07813 0.453125,-0.04687 0.734375,-0.07813 V 86.558594 H 31.9375 q -0.125,1.8125 -1.046875,3.015625 l -0.65625,-0.609375 q 0.890625,-1.15625 0.890625,-2.875 v -2.609375 h 9.0625 v 0.609375 h -8.234375 v 1.828125 H 40.5 v 0.640625 h -1.203125 l 0.578125,0.46875 q -0.625,0.515625 -1.53125,0.984375 z m -0.640625,-0.359375 q 0.828125,-0.53125 1.421875,-1.09375 h -2.609375 q 0.53125,0.671875 1.1875,1.09375 z m -5.8125,-6.421875 h 2.59375 v 0.5625 h -2.59375 z m 0,1.09375 h 2.59375 v 0.5625 h -2.59375 z m 4.53125,-1.09375 h 2.671875 v 0.5625 h -2.671875 z m 0,1.09375 h 2.671875 v 0.5625 h -2.671875 z m -3.90625,2.34375 h 6.765625 v 0.59375 h -6.765625 z m 15.578125,-4.78125 h 4.265625 v 0.734375 h -8.46875 v 1.28125 h 1.96875 v -0.921875 h 0.8125 v 0.921875 H 49.1875 v -0.921875 h 0.796875 v 0.921875 h 2.4375 v 0.71875 h -2.4375 v 1.6875 h -4.125 v -1.6875 h -1.96875 v 0.78125 q 0,2.46875 -0.265625,3.703125 -0.234375,1.078125 -0.984375,2.28125 L 42,88.652344 q 0.71875,-1.109375 0.9375,-2.6875 0.109375,-0.90625 0.109375,-2.5625 V 79.886719 H 47.1875 v -1.296875 h 0.90625 z m -1.421875,2.734375 v 1.03125 H 49.1875 v -1.03125 z m 1.59375,5.4375 q -1.53125,0.9375 -4,1.421875 l -0.46875,-0.734375 q 2.296875,-0.3125 3.734375,-1.109375 -1.265625,-0.78125 -2.0625,-1.9375 H 44.453125 V 84.996094 H 50.6875 l 0.421875,0.375 q -0.9375,1.328125 -2.125,2.21875 1.46875,0.59375 3.625,0.859375 l -0.53125,0.859375 q -2.265625,-0.4375 -3.8125,-1.25 z m -1.875,-2.359375 q 0.703125,0.90625 1.8125,1.515625 1.109375,-0.75 1.59375,-1.515625 z" />
    <g
       stroke-miterlimit="0"
       id="g149"
       style="font-family:sans-serif;fill:#c0c0c0;stroke:#c0c0c0;stroke-width:0.5;stroke-linecap:butt;stroke-linejoin:bevel;stroke-miterlimit:0;stroke-dasharray:2, 2;text-rendering:optimizeLegibility">
      <line
         clip-path="url(#clipPath3)"
         x1="50"
         x2="50"
         y1="8"
         y2="159"
         id="line109"
         style="fill:none" />
      <line
         clip-path="url(#clipPath3)"
         x1="154.28572"
         x2="154.28572"
         y1="8"
         y2="159"
         id="line113"
         style="fill:none" />
      <line
         clip-path="url(#clipPath3)"
         x1="258.57144"
         x2="258.57144"
         y1="8"
         y2="159"
         id="line117"
         style="fill:none" />
      <line
         clip-path="url(#clipPath3)"
         x1="362.85715"
         x2="362.85715"
         y1="8"
         y2="159"
         id="line121"
         style="fill:none" />
      <line
         clip-path="url(#clipPath3)"
         x1="467.14285"
         x2="467.14285"
         y1="8"
         y2="159"
         id="line125"
         style="fill:none" />
      <line
         clip-path="url(#clipPath3)"
         x1="50"
         x2="488"
         y1="159"
         y2="159"
         id="line127"
         style="fill:none" />
      <line
         clip-path="url(#clipPath3)"
         x1="50"
         x2="488"
         y1="143.89999"
         y2="143.89999"
         id="line129"
         style="fill:none" />
      <line
         clip-path="url(#clipPath3)"
         x1="50"
         x2="488"
         y1="128.8"
         y2="128.8"
         id="line131"
         style="fill:none" />
      <line
         clip-path="url(#clipPath3)"
         x1="50"
         x2="488"
         y1="113.7"
         y2="113.7"
         id="line133"
         style="fill:none" />
      <line
         clip-path="url(#clipPath3)"
         x1="50"
         x2="488"
         y1="98.599998"
         y2="98.599998"
         id="line135"
         style="fill:none" />
      <line
         clip-path="url(#clipPath3)"
         x1="50"
         x2="488"
         y1="83.5"
         y2="83.5"
         id="line137"
         style="fill:none" />
      <line
         clip-path="url(#clipPath3)"
         x1="50"
         x2="488"
         y1="68.400002"
         y2="68.400002"
         id="line139"
         style="fill:none" />
      <line
         clip-path="url(#clipPath3)"
         x1="50"
         x2="488"
         y1="53.299999"
         y2="53.299999"
         id="line141"
         style="fill:none" />
      <line
         clip-path="url(#clipPath3)"
         x1="50"
         x2="488"
         y1="38.200001"
         y2="38.200001"
         id="line143"
         style="fill:none" />
      <line
         clip-path="url(#clipPath3)"
         x1="50"
         x2="488"
         y1="23.1"
         y2="23.1"
         id="line145"
         style="fill:none" />
      <line
         clip-path="url(#clipPath3)"
         x1="50"
         x2="488"
         y1="8"
         y2="8"
         id="line147"
         style="fill:none" />
    </g>
    <g
       id="g305"
       style="font-family:sans-serif;fill:none;stroke:#000000;text-rendering:optimizeLegibility">
      <path
         d="m 464.14285,29.040632 h 6 v 6.000002 h -6 z"
         clip-path="url(#clipPath3)"
         id="path151"
         inkscape:connector-curvature="0"
         style="fill:none;stroke:#000000" />
      <path
         d="m 464.14285,50.173504 h 6 v 6 h -6 z"
         clip-path="url(#clipPath3)"
         id="path153"
         inkscape:connector-curvature="0"
         style="fill:none;stroke:#000000" />
      <path
         d="m 464.14285,50.947464 h 6 v 6 h -6 z"
         clip-path="url(#clipPath3)"
         id="path155"
         inkscape:connector-curvature="0"
         style="fill:none;stroke:#000000" />
      <path
         d="m 359.85715,93.314651 h 6 v 6 h -6 z"
         clip-path="url(#clipPath3)"
         id="path157"
         inkscape:connector-curvature="0"
         style="fill:none;stroke:#000000" />
      <path
         d="m 359.85715,67.257431 h 6 v 6 h -6 z"
         clip-path="url(#clipPath3)"
         id="path159"
         inkscape:connector-curvature="0"
         style="fill:none;stroke:#000000" />
      <path
         d="m 359.85715,85.971039 h 6 v 6 h -6 z"
         clip-path="url(#clipPath3)"
         id="path161"
         inkscape:connector-curvature="0"
         style="fill:none;stroke:#000000" />
      <path
         d="m 359.85715,74.063095 h 6 v 6 h -6 z"
         clip-path="url(#clipPath3)"
         id="path163"
         inkscape:connector-curvature="0"
         style="fill:none;stroke:#000000" />
      <path
         d="m 359.85715,86.864784 h 6 v 6 h -6 z"
         clip-path="url(#clipPath3)"
         id="path165"
         inkscape:connector-curvature="0"
         style="fill:none;stroke:#000000" />
      <path
         d="m 255.57143,124.24163 h 6.00001 v 5.99999 h -6.00001 z"
         clip-path="url(#clipPath3)"
         id="path167"
         inkscape:connector-curvature="0"
         style="fill:none;stroke:#000000" />
      <path
         d="m 255.57143,128.13954 h 6.00001 v 6 h -6.00001 z"
         clip-path="url(#clipPath3)"
         id="path169"
         inkscape:connector-curvature="0"
         style="fill:none;stroke:#000000" />
      <path
         d="m 255.57143,124.00633 h 6.00001 v 5.99999 h -6.00001 z"
         clip-path="url(#clipPath3)"
         id="path171"
         inkscape:connector-curvature="0"
         style="fill:none;stroke:#000000" />
      <path
         d="m 255.57143,115.79095 h 6.00001 v 6 h -6.00001 z"
         clip-path="url(#clipPath3)"
         id="path173"
         inkscape:connector-curvature="0"
         style="fill:none;stroke:#000000" />
      <path
         d="m 255.57143,126.88121 h 6.00001 v 6 h -6.00001 z"
         clip-path="url(#clipPath3)"
         id="path175"
         inkscape:connector-curvature="0"
         style="fill:none;stroke:#000000" />
      <path
         d="m 255.57143,117.31634 h 6.00001 v 6 h -6.00001 z"
         clip-path="url(#clipPath3)"
         id="path177"
         inkscape:connector-curvature="0"
         style="fill:none;stroke:#000000" />
      <path
         d="m 255.57143,123.91554 h 6.00001 v 6 h -6.00001 z"
         clip-path="url(#clipPath3)"
         id="path179"
         inkscape:connector-curvature="0"
         style="fill:none;stroke:#000000" />
      <path
         d="m 255.57143,105.19324 h 6.00001 v 6 h -6.00001 z"
         clip-path="url(#clipPath3)"
         id="path181"
         inkscape:connector-curvature="0"
         style="fill:none;stroke:#000000" />
      <path
         d="m 255.57143,106.7044 h 6.00001 v 6 h -6.00001 z"
         clip-path="url(#clipPath3)"
         id="path183"
         inkscape:connector-curvature="0"
         style="fill:none;stroke:#000000" />
      <path
         d="m 255.57143,115.91779 h 6.00001 v 6 h -6.00001 z"
         clip-path="url(#clipPath3)"
         id="path185"
         inkscape:connector-curvature="0"
         style="fill:none;stroke:#000000" />
      <path
         d="m 255.57143,105.03929 h 6.00001 v 6 h -6.00001 z"
         clip-path="url(#clipPath3)"
         id="path187"
         inkscape:connector-curvature="0"
         style="fill:none;stroke:#000000" />
      <path
         d="m 255.57143,126.31437 h 6.00001 v 6.00001 h -6.00001 z"
         clip-path="url(#clipPath3)"
         id="path189"
         inkscape:connector-curvature="0"
         style="fill:none;stroke:#000000" />
      <path
         d="m 255.57143,104.15015 h 6.00001 v 6 h -6.00001 z"
         clip-path="url(#clipPath3)"
         id="path191"
         inkscape:connector-curvature="0"
         style="fill:none;stroke:#000000" />
      <path
         d="m 255.57143,100.48469 h 6.00001 v 6 h -6.00001 z"
         clip-path="url(#clipPath3)"
         id="path193"
         inkscape:connector-curvature="0"
         style="fill:none;stroke:#000000" />
      <path
         d="m 255.57143,120.93751 h 6.00001 v 6 h -6.00001 z"
         clip-path="url(#clipPath3)"
         id="path195"
         inkscape:connector-curvature="0"
         style="fill:none;stroke:#000000" />
      <path
         d="m 255.57143,109.11352 h 6.00001 v 6 h -6.00001 z"
         clip-path="url(#clipPath3)"
         id="path197"
         inkscape:connector-curvature="0"
         style="fill:none;stroke:#000000" />
      <path
         d="m 255.57143,113.02699 h 6.00001 v 6 h -6.00001 z"
         clip-path="url(#clipPath3)"
         id="path199"
         inkscape:connector-curvature="0"
         style="fill:none;stroke:#000000" />
      <path
         d="m 255.57143,118.10436 h 6.00001 v 6 h -6.00001 z"
         clip-path="url(#clipPath3)"
         id="path201"
         inkscape:connector-curvature="0"
         style="fill:none;stroke:#000000" />
      <path
         d="m 255.57143,126.12478 h 6.00001 v 5.99999 h -6.00001 z"
         clip-path="url(#clipPath3)"
         id="path203"
         inkscape:connector-curvature="0"
         style="fill:none;stroke:#000000" />
      <path
         d="m 255.57143,111.61925 h 6.00001 v 6 h -6.00001 z"
         clip-path="url(#clipPath3)"
         id="path205"
         inkscape:connector-curvature="0"
         style="fill:none;stroke:#000000" />
      <path
         d="m 255.57143,107.09328 h 6.00001 v 6 h -6.00001 z"
         clip-path="url(#clipPath3)"
         id="path207"
         inkscape:connector-curvature="0"
         style="fill:none;stroke:#000000" />
      <path
         d="m 255.57143,104.20659 h 6.00001 v 6 h -6.00001 z"
         clip-path="url(#clipPath3)"
         id="path209"
         inkscape:connector-curvature="0"
         style="fill:none;stroke:#000000" />
      <path
         d="m 255.57143,109.77585 h 6.00001 v 6 h -6.00001 z"
         clip-path="url(#clipPath3)"
         id="path211"
         inkscape:connector-curvature="0"
         style="fill:none;stroke:#000000" />
      <path
         d="m 255.57143,127.56677 h 6.00001 v 6 h -6.00001 z"
         clip-path="url(#clipPath3)"
         id="path213"
         inkscape:connector-curvature="0"
         style="fill:none;stroke:#000000" />
      <path
         d="m 151.28572,132.06277 h 6 v 6 h -6 z"
         clip-path="url(#clipPath3)"
         id="path215"
         inkscape:connector-curvature="0"
         style="fill:none;stroke:#000000" />
      <path
         d="m 151.28572,134.85409 h 6 v 6 h -6 z"
         clip-path="url(#clipPath3)"
         id="path217"
         inkscape:connector-curvature="0"
         style="fill:none;stroke:#000000" />
      <path
         d="m 151.28572,139.50153 h 6 v 6 h -6 z"
         clip-path="url(#clipPath3)"
         id="path219"
         inkscape:connector-curvature="0"
         style="fill:none;stroke:#000000" />
      <path
         d="m 151.28572,135.1403 h 6 v 6 h -6 z"
         clip-path="url(#clipPath3)"
         id="path221"
         inkscape:connector-curvature="0"
         style="fill:none;stroke:#000000" />
      <path
         d="m 151.28572,114.87697 h 6 v 6 h -6 z"
         clip-path="url(#clipPath3)"
         id="path223"
         inkscape:connector-curvature="0"
         style="fill:none;stroke:#000000" />
      <path
         d="m 151.28572,144.05231 h 6 v 6 h -6 z"
         clip-path="url(#clipPath3)"
         id="path225"
         inkscape:connector-curvature="0"
         style="fill:none;stroke:#000000" />
      <path
         d="m 151.28572,129.95123 h 6 v 6 h -6 z"
         clip-path="url(#clipPath3)"
         id="path227"
         inkscape:connector-curvature="0"
         style="fill:none;stroke:#000000" />
      <path
         d="m 151.28572,130.18956 h 6 v 6 h -6 z"
         clip-path="url(#clipPath3)"
         id="path229"
         inkscape:connector-curvature="0"
         style="fill:none;stroke:#000000" />
      <path
         d="m 151.28572,144.69603 h 6 v 6 h -6 z"
         clip-path="url(#clipPath3)"
         id="path231"
         inkscape:connector-curvature="0"
         style="fill:none;stroke:#000000" />
      <path
         d="m 151.28572,131.35838 h 6 v 6 h -6 z"
         clip-path="url(#clipPath3)"
         id="path233"
         inkscape:connector-curvature="0"
         style="fill:none;stroke:#000000" />
      <path
         d="m 151.28572,144.84106 h 6 v 6 h -6 z"
         clip-path="url(#clipPath3)"
         id="path235"
         inkscape:connector-curvature="0"
         style="fill:none;stroke:#000000" />
      <path
         d="m 151.28572,143.94409 h 6 v 6 h -6 z"
         clip-path="url(#clipPath3)"
         id="path237"
         inkscape:connector-curvature="0"
         style="fill:none;stroke:#000000" />
      <path
         d="m 151.28572,131.69197 h 6 v 6 h -6 z"
         clip-path="url(#clipPath3)"
         id="path239"
         inkscape:connector-curvature="0"
         style="fill:none;stroke:#000000" />
      <path
         d="m 151.28572,135.59206 h 6 v 6 h -6 z"
         clip-path="url(#clipPath3)"
         id="path241"
         inkscape:connector-curvature="0"
         style="fill:none;stroke:#000000" />
      <path
         d="m 151.28572,141.98975 h 6 v 6 h -6 z"
         clip-path="url(#clipPath3)"
         id="path243"
         inkscape:connector-curvature="0"
         style="fill:none;stroke:#000000" />
      <path
         d="m 151.28572,132.42195 h 6 v 6 h -6 z"
         clip-path="url(#clipPath3)"
         id="path245"
         inkscape:connector-curvature="0"
         style="fill:none;stroke:#000000" />
      <path
         d="m 151.28572,122.00167 h 6 v 6.00001 h -6 z"
         clip-path="url(#clipPath3)"
         id="path247"
         inkscape:connector-curvature="0"
         style="fill:none;stroke:#000000" />
      <path
         d="m 151.28572,129.85362 h 6 v 6 h -6 z"
         clip-path="url(#clipPath3)"
         id="path249"
         inkscape:connector-curvature="0"
         style="fill:none;stroke:#000000" />
      <path
         d="m 151.28572,137.96999 h 6 v 6 h -6 z"
         clip-path="url(#clipPath3)"
         id="path251"
         inkscape:connector-curvature="0"
         style="fill:none;stroke:#000000" />
      <path
         d="m 151.28572,154.83433 h 6 v 6 h -6 z"
         clip-path="url(#clipPath3)"
         id="path253"
         inkscape:connector-curvature="0"
         style="fill:none;stroke:#000000" />
      <path
         d="m 151.28572,135.41052 h 6 v 6 h -6 z"
         clip-path="url(#clipPath3)"
         id="path255"
         inkscape:connector-curvature="0"
         style="fill:none;stroke:#000000" />
      <path
         d="m 151.28572,136.7153 h 6 v 6 h -6 z"
         clip-path="url(#clipPath3)"
         id="path257"
         inkscape:connector-curvature="0"
         style="fill:none;stroke:#000000" />
      <path
         d="m 151.28572,156.16391 h 6 v 6 h -6 z"
         clip-path="url(#clipPath3)"
         id="path259"
         inkscape:connector-curvature="0"
         style="fill:none;stroke:#000000" />
      <path
         d="m 151.28572,144.87888 h 6 v 6 h -6 z"
         clip-path="url(#clipPath3)"
         id="path261"
         inkscape:connector-curvature="0"
         style="fill:none;stroke:#000000" />
      <path
         d="m 151.28572,141.45804 h 6 v 6 h -6 z"
         clip-path="url(#clipPath3)"
         id="path263"
         inkscape:connector-curvature="0"
         style="fill:none;stroke:#000000" />
      <path
         d="m 151.28572,131.04553 h 6 v 6 h -6 z"
         clip-path="url(#clipPath3)"
         id="path265"
         inkscape:connector-curvature="0"
         style="fill:none;stroke:#000000" />
      <path
         d="m 151.28572,137.97273 h 6 v 6 h -6 z"
         clip-path="url(#clipPath3)"
         id="path267"
         inkscape:connector-curvature="0"
         style="fill:none;stroke:#000000" />
      <path
         d="m 151.28572,120.09065 h 6 v 6 h -6 z"
         clip-path="url(#clipPath3)"
         id="path269"
         inkscape:connector-curvature="0"
         style="fill:none;stroke:#000000" />
      <path
         d="m 151.28572,141.15279 h 6 v 6 h -6 z"
         clip-path="url(#clipPath3)"
         id="path271"
         inkscape:connector-curvature="0"
         style="fill:none;stroke:#000000" />
      <path
         d="m 151.28572,134.67947 h 6 v 6 h -6 z"
         clip-path="url(#clipPath3)"
         id="path273"
         inkscape:connector-curvature="0"
         style="fill:none;stroke:#000000" />
      <path
         d="m 151.28572,139.77431 h 6 v 6 h -6 z"
         clip-path="url(#clipPath3)"
         id="path275"
         inkscape:connector-curvature="0"
         style="fill:none;stroke:#000000" />
      <path
         d="m 151.28572,147.30489 h 6 v 6 h -6 z"
         clip-path="url(#clipPath3)"
         id="path277"
         inkscape:connector-curvature="0"
         style="fill:none;stroke:#000000" />
      <path
         d="m 151.28572,141.09055 h 6 v 6 h -6 z"
         clip-path="url(#clipPath3)"
         id="path279"
         inkscape:connector-curvature="0"
         style="fill:none;stroke:#000000" />
      <path
         d="m 151.28572,130.21168 h 6 v 6 h -6 z"
         clip-path="url(#clipPath3)"
         id="path281"
         inkscape:connector-curvature="0"
         style="fill:none;stroke:#000000" />
      <path
         d="m 151.28572,150.9675 h 6 v 6 h -6 z"
         clip-path="url(#clipPath3)"
         id="path283"
         inkscape:connector-curvature="0"
         style="fill:none;stroke:#000000" />
      <path
         d="m 151.28572,116.25627 h 6 v 6 h -6 z"
         clip-path="url(#clipPath3)"
         id="path285"
         inkscape:connector-curvature="0"
         style="fill:none;stroke:#000000" />
      <path
         d="m 151.28572,124.49247 h 6 v 5.99999 h -6 z"
         clip-path="url(#clipPath3)"
         id="path287"
         inkscape:connector-curvature="0"
         style="fill:none;stroke:#000000" />
      <path
         d="m 151.28572,137.15466 h 6 v 6 h -6 z"
         clip-path="url(#clipPath3)"
         id="path289"
         inkscape:connector-curvature="0"
         style="fill:none;stroke:#000000" />
      <path
         d="m 151.28572,142.62007 h 6 v 6 h -6 z"
         clip-path="url(#clipPath3)"
         id="path291"
         inkscape:connector-curvature="0"
         style="fill:none;stroke:#000000" />
      <path
         d="m 151.28572,125.95948 h 6 v 5.99999 h -6 z"
         clip-path="url(#clipPath3)"
         id="path293"
         inkscape:connector-curvature="0"
         style="fill:none;stroke:#000000" />
      <path
         d="m 151.28572,139.55484 h 6 v 6 h -6 z"
         clip-path="url(#clipPath3)"
         id="path295"
         inkscape:connector-curvature="0"
         style="fill:none;stroke:#000000" />
      <path
         d="m 151.28572,116.72304 h 6 v 6 h -6 z"
         clip-path="url(#clipPath3)"
         id="path297"
         inkscape:connector-curvature="0"
         style="fill:none;stroke:#000000" />
      <path
         d="m 151.28572,143.31303 h 6 v 6 h -6 z"
         clip-path="url(#clipPath3)"
         id="path299"
         inkscape:connector-curvature="0"
         style="fill:none;stroke:#000000" />
      <path
         d="m 151.28572,128.97594 h 6 v 6 h -6 z"
         clip-path="url(#clipPath3)"
         id="path301"
         inkscape:connector-curvature="0"
         style="fill:none;stroke:#000000" />
      <path
         d="m 151.28572,151.41901 h 6 v 6 h -6 z"
         clip-path="url(#clipPath3)"
         id="path303"
         inkscape:connector-curvature="0"
         style="fill:none;stroke:#000000" />
    </g>
    <g
       stroke-miterlimit="0"
       id="g309"
       style="font-family:sans-serif;stroke-linecap:round;stroke-linejoin:round;stroke-miterlimit:0;text-rendering:optimizeLegibility">
      <rect
         x="50"
         y="8"
         clip-path="url(#clipPath1)"
         width="438"
         height="151"
         id="rect307"
         style="fill:none" />
    </g>
    <text
       x="146.78572"
       y="172.79883"
       clip-path="url(#clipPath1)"
       xml:space="preserve"
       id="text1012"
       transform="matrix(1.54,0,0,1.54,13.521889,-89.329873)"
       style="font-size:10px;font-family:sans-serif;fill:#000000;stroke:none;stroke-width:0.32467532;text-rendering:optimizeLegibility">震度2</text>
    <text
       style="font-size:10px;font-family:sans-serif;fill:#000000;stroke:none;stroke-width:0.32467532;text-rendering:optimizeLegibility"
       transform="matrix(1.54,0,0,1.54,117.40331,-89.329873)"
       id="text1014"
       xml:space="preserve"
       clip-path="url(#clipPath1)"
       y="172.79883"
       x="146.78572">震度3</text>
  </g>
</svg>
